<?xml version="1.0" standalone="no"?>
<!DOCTYPE svg PUBLIC "-//W3C//DTD SVG 20010904//EN"
 "http://www.w3.org/TR/2001/REC-SVG-20010904/DTD/svg10.dtd">
<svg version="1.0" xmlns="http://www.w3.org/2000/svg"
 width="1800.000000pt" height="1800.000000pt" viewBox="0 0 1800.000000 1800.000000"
 preserveAspectRatio="xMidYMid meet">

<g transform="translate(0.000000,1800.000000) scale(0.100000,-0.100000)"
fill="#000000" stroke="none">
<path d="M1012 17408 c-6 -46 -24 -175 -41 -288 -17 -113 -31 -226 -31 -251
l0 -47 -82 -9 c-184 -21 -621 -88 -593 -91 17 -1 120 -16 230 -33 274 -41 332
-49 390 -52 l50 -4 3 -39 c1 -21 11 -104 23 -184 11 -80 22 -163 25 -185 3
-22 12 -78 20 -125 8 -47 14 -98 15 -115 1 -29 1 -30 9 -5 4 14 13 63 19 110
7 47 19 126 26 175 18 114 22 137 37 262 12 100 12 101 41 107 16 3 46 6 66 6
20 0 74 7 121 15 47 9 103 18 126 20 23 3 101 14 174 25 73 11 139 20 148 20
8 0 13 2 11 5 -6 5 -366 59 -584 86 l-90 11 -17 132 c-25 192 -76 527 -81 532
-2 2 -9 -33 -15 -78z"/>
<path d="M9105 16721 c-137 -59 -392 -169 -565 -244 -173 -74 -704 -302 -1180
-507 -476 -205 -1103 -475 -1395 -600 -291 -125 -694 -298 -895 -385 -201 -86
-493 -212 -650 -278 -242 -104 -291 -128 -327 -164 -57 -56 -81 -134 -65 -211
14 -64 43 -114 87 -147 17 -14 176 -79 351 -144 449 -167 429 -149 169 -150
l-220 -1 -3 -77 c-1 -43 7 -348 18 -678 11 -330 20 -652 20 -715 0 -63 4 -120
8 -125 4 -6 27 -19 52 -30 49 -22 72 -38 103 -72 28 -31 45 -29 49 5 4 35 32
36 36 0 2 -18 11 -28 28 -32 33 -9 31 -26 -3 -26 -23 0 -28 -5 -30 -28 -1 -15
2 -50 8 -78 l10 -51 51 -6 c76 -9 168 -56 210 -108 72 -89 73 -90 76 -339 4
-238 -5 -316 -50 -437 -11 -29 -16 -58 -12 -64 5 -8 3 -9 -6 -4 -10 6 -12 4
-7 -9 4 -10 3 -15 -3 -11 -6 4 -16 -6 -23 -22 -6 -15 -30 -55 -51 -88 -26 -40
-40 -73 -41 -99 -3 -53 -34 -78 -89 -74 -24 1 -41 -2 -44 -10 -2 -6 -9 -12
-16 -12 -7 0 -21 -8 -32 -17 -10 -10 -44 -29 -74 -43 -30 -14 -56 -28 -58 -32
-2 -4 -10 -4 -18 -1 -8 3 -14 0 -14 -6 0 -6 -7 -8 -15 -5 -8 4 -15 2 -15 -2 0
-5 -18 -10 -40 -11 -76 -2 -70 46 -70 -543 0 -464 2 -530 15 -530 8 0 15 -4
15 -10 0 -5 -7 -10 -15 -10 -8 0 -15 -7 -15 -15 0 -8 7 -15 15 -15 11 0 15
-11 15 -40 0 -27 -4 -39 -13 -38 -16 4 -10 -2549 6 -2570 8 -10 7 -16 -4 -22
-11 -8 -12 -13 -1 -30 14 -24 16 -70 2 -70 -6 0 -8 -276 -5 -792 2 -436 7
-1461 11 -2278 3 -817 7 -1487 9 -1489 5 -4 5844 17 7595 28 1322 9 1228 4
1382 76 78 36 157 90 191 129 10 12 28 32 40 46 43 49 87 122 80 133 -3 5 -1
7 5 4 12 -8 44 77 35 98 -3 8 2 18 11 21 20 8 21 30 1 38 -17 6 -20 52 -4 61
6 4 13 -3 17 -16 l6 -24 7 25 c9 33 11 1888 3 2277 -7 282 -8 303 -26 309 -24
7 -23 25 2 31 26 7 25 17 -1 34 -16 11 -19 20 -14 42 5 20 12 26 23 22 13 -5
14 138 10 1271 -4 1186 -5 1277 -21 1289 -21 15 -22 35 -2 35 8 0 15 9 15 20
0 11 -7 23 -15 26 -20 8 -19 34 1 63 15 21 16 134 12 1286 -3 1066 -6 1265
-18 1280 -12 14 -12 18 1 25 11 7 12 15 2 40 -9 23 -9 39 -1 62 8 22 9 381 5
1242 -5 996 -9 1221 -21 1269 -12 53 -36 98 -36 71 0 -6 -17 -10 -37 -8 -21 1
-48 2 -60 3 -19 1 -23 7 -23 34 0 30 2 32 37 35 43 3 56 12 48 35 -7 16 -34
13 -46 -6 -4 -6 -14 -5 -25 1 -17 9 -16 12 14 29 22 12 31 24 30 38 -3 17 39
32 406 142 436 131 453 139 504 215 21 33 27 55 30 114 5 85 -17 144 -72 192
-18 15 -244 135 -502 267 -258 131 -541 275 -629 320 -88 46 -419 214 -735
375 -316 161 -687 350 -825 420 -247 126 -1028 524 -1675 853 -184 93 -404
205 -488 248 -147 76 -155 79 -220 78 -63 0 -84 -7 -317 -108z m2581 -1338
c1087 -546 1064 -534 1079 -557 13 -21 -5 -50 -33 -54 -17 -3 -2029 999 -2069
1031 -7 5 -13 16 -13 25 0 16 28 52 40 52 4 0 452 -224 996 -497z m-6250
-1843 c0 -89 -7 -120 -27 -120 -5 0 -9 50 -9 111 0 100 2 110 18 107 15 -3 17
-16 18 -98z m-712 59 c3 -17 6 -56 6 -85 0 -30 3 -55 8 -55 75 -12 80 -6 84
91 2 59 6 75 18 75 19 0 26 -125 10 -166 -13 -31 -52 -42 -115 -31 l-40 7 -3
55 c-4 64 6 140 17 140 5 0 11 -14 15 -31z m8819 -32 c-4 -6 -6 -30 -4 -54 3
-53 -6 -83 -25 -83 -11 0 -14 16 -14 73 0 41 3 76 6 79 10 10 44 -4 37 -15z
m-8605 -56 c3 -62 -9 -96 -32 -88 -11 4 -10 132 1 150 14 23 28 -6 31 -62z
m90 57 c9 -12 7 -108 -3 -136 -11 -29 -25 2 -25 55 0 46 -3 56 -20 60 -11 3
-20 12 -20 19 0 18 54 19 68 2z m146 -3 c26 -20 12 -32 -22 -19 -51 19 -74 -7
-24 -28 15 -6 30 -12 34 -12 18 -2 30 -27 24 -49 -9 -38 -86 -48 -108 -13 -14
21 -8 24 21 13 15 -5 36 -7 46 -3 16 6 17 9 4 21 -8 8 -23 16 -34 17 -33 6
-45 18 -45 48 0 15 6 31 13 33 25 10 72 6 91 -8z m189 -2 c4 -2 7 -24 7 -47 0
-60 -26 -91 -77 -91 -34 0 -38 -3 -35 -22 3 -18 -2 -23 -18 -23 -20 0 -21 4
-19 100 l2 99 66 -5 c36 -3 69 -8 74 -11z m218 4 c12 -9 16 -29 15 -76 l-1
-65 -52 -1 c-66 -2 -75 4 -71 46 3 32 5 34 46 37 34 3 42 7 42 23 0 18 -4 20
-45 13 -48 -7 -56 0 -27 22 21 17 72 17 93 1z m144 1 c36 -16 31 -30 -9 -22
-19 3 -40 3 -45 -1 -16 -9 12 -35 38 -35 22 0 51 -25 51 -44 0 -32 -60 -53
-101 -36 -30 13 -40 40 -14 40 8 0 15 -4 15 -10 0 -5 14 -10 30 -10 20 0 30 5
30 15 0 16 -5 19 -52 29 -24 5 -28 11 -28 40 0 28 4 35 23 39 12 2 25 5 29 6
4 0 19 -4 33 -11z m7738 -35 c8 -50 1 -74 -30 -97 -21 -15 -29 -17 -44 -8 -27
17 -29 15 -29 -18 0 -23 -4 -30 -20 -30 -18 0 -19 7 -18 73 0 40 6 75 12 79
23 15 32 8 28 -22 -5 -34 12 -60 38 -60 21 0 30 19 30 66 0 26 -3 32 -15 28
-8 -4 -15 -1 -15 4 0 6 10 13 23 15 12 2 25 5 28 6 4 0 9 -16 12 -36z m-7645
-10 c10 -21 9 -74 -2 -91 -3 -6 -13 -9 -20 -6 -16 6 -18 53 -4 72 6 7 7 12 1
12 -5 0 -10 7 -10 15 0 21 24 19 35 -2z m7462 -33 c25 -47 -33 -82 -89 -54
-41 20 -39 25 7 23 20 -2 46 2 56 8 16 9 14 11 -15 17 -30 7 -32 9 -14 16 32
14 44 11 55 -10z m-7360 -25 c0 -24 -5 -35 -15 -35 -8 0 -15 6 -16 13 0 6 -2
22 -3 35 -2 16 3 22 16 22 14 0 18 -8 18 -35z m7210 -10 c0 -8 -7 -15 -15 -15
-16 0 -20 12 -8 23 11 12 23 8 23 -8z m-7083 -11 c-3 -3 -12 -4 -19 -1 -8 3
-5 6 6 6 11 1 17 -2 13 -5z m6993 -8 c0 -9 -30 -14 -35 -6 -4 6 3 10 14 10 12
0 21 -2 21 -4z m-6947 -491 c-3 -9 -8 -14 -10 -11 -3 3 -2 9 2 15 9 16 15 13
8 -4z m-22 -687 c7 -12 11 -53 10 -90 l-2 -68 39 0 c27 0 42 5 46 16 5 13 9
14 22 3 23 -19 -3 -38 -63 -46 -60 -7 -68 2 -79 85 -6 46 1 122 11 122 2 0 10
-10 16 -22z m6590 -38 c5 0 9 -31 9 -70 0 -53 -3 -70 -14 -70 -15 0 -30 68
-20 93 3 10 -2 18 -16 22 -17 5 -19 9 -9 21 7 8 19 12 26 9 8 -3 19 -5 24 -5z
m139 -26 c0 -18 5 -24 23 -24 42 0 52 -17 13 -24 -32 -6 -36 -10 -36 -36 0
-20 -5 -30 -15 -30 -10 0 -15 10 -15 29 0 26 -4 30 -32 33 -39 4 -40 22 -3 26
15 2 28 10 31 18 2 8 6 21 9 30 7 22 25 7 25 -22z m-220 -54 c0 -15 -3 -35 -6
-44 -7 -19 -34 -21 -35 -3 0 6 -2 20 -4 29 -4 20 23 60 36 53 5 -4 9 -19 9
-35z m-82 -32 c-2 -19 -10 -24 -45 -26 -28 -2 -43 1 -43 9 0 6 8 9 19 6 12 -3
27 3 38 13 25 25 35 24 31 -2z m-491 -58 c-1 -23 -32 -27 -40 -6 -7 17 1 26
24 26 12 0 17 -7 16 -20z m-7068 -116 c14 -12 -19 -1 -35 12 -18 14 -18 14 6
3 14 -6 27 -13 29 -15z m4858 -588 c15 -33 18 -34 87 -41 39 -3 107 -10 151
-15 44 -5 193 -21 330 -35 138 -14 309 -32 380 -40 72 -8 182 -19 245 -25 63
-6 169 -17 235 -25 66 -8 177 -20 248 -26 l127 -12 0 -78 c0 -48 10 -121 25
-186 13 -60 59 -263 101 -453 97 -443 114 -513 125 -526 5 -6 9 -22 8 -35 -1
-25 3 -43 15 -70 4 -9 6 -20 5 -25 -6 -20 32 -193 53 -246 12 -32 38 -37 38
-8 0 18 7 20 59 20 37 0 63 -5 68 -12 4 -7 6 -190 4 -407 -3 -344 -5 -402 -21
-459 -10 -37 -16 -70 -14 -74 3 -4 0 -8 -6 -8 -6 0 -8 -4 -5 -10 3 -5 1 -10
-5 -10 -6 0 -9 -3 -6 -8 2 -4 -13 -33 -35 -64 -21 -32 -39 -60 -39 -62 0 -9
-95 -101 -135 -131 -22 -17 -42 -33 -45 -36 -3 -4 -41 -21 -85 -39 -44 -18
-89 -36 -100 -41 -38 -17 -191 -28 -230 -18 -46 13 -58 0 -50 -53 6 -44 -2
-69 -21 -61 -10 4 -14 22 -14 64 0 56 -1 59 -24 59 -33 0 -40 -14 -37 -71 2
-41 -1 -48 -20 -54 -23 -8 -45 13 -30 28 5 5 7 31 4 57 -4 41 -2 49 14 52 12
2 -1 13 -42 34 -101 51 -147 84 -212 152 -35 35 -63 68 -63 72 0 4 -15 33 -34
64 -77 128 -86 195 -86 633 l0 363 64 0 63 0 28 78 c15 42 28 87 29 99 0 11 4
19 7 17 7 -4 75 195 73 213 -1 7 1 11 5 9 3 -2 17 30 30 72 25 81 26 84 60
171 11 29 18 58 14 64 -3 5 -2 7 4 4 6 -4 18 20 29 53 10 33 22 60 26 60 5 0
8 9 8 20 0 10 16 63 36 117 20 54 42 116 49 138 7 22 38 112 69 199 31 88 56
163 56 168 0 9 -1438 11 -1539 2 -68 -7 -71 -8 -71 -33 0 -50 -7 -51 -263 -51
l-239 0 6 -122 c23 -420 56 -1129 56 -1179 0 -48 3 -59 16 -59 46 0 59 -88 20
-129 l-24 -26 19 -355 c10 -195 21 -418 24 -495 3 -77 7 -160 10 -185 3 -25 7
-112 10 -195 3 -82 10 -226 15 -320 5 -93 14 -291 20 -440 6 -148 13 -280 16
-292 3 -16 14 -23 43 -28 72 -12 159 -62 224 -127 34 -34 66 -61 70 -60 5 1 6
-1 3 -6 -2 -4 -1 -14 5 -22 6 -11 9 -8 9 13 0 36 15 34 29 -4 10 -29 13 -31
44 -25 45 8 54 -5 58 -84 3 -56 2 -65 -13 -64 -13 1 -6 -13 26 -55 77 -102
163 -91 -732 -93 -433 -2 -813 -2 -845 -2 -57 1 -80 9 -62 22 10 7 75 99 75
107 0 2 14 19 30 37 17 18 30 36 30 41 0 5 9 20 20 34 22 28 27 48 8 37 -7 -4
-8 -3 -4 5 4 6 11 9 16 6 12 -7 33 22 24 36 -4 7 -3 9 3 6 6 -4 24 10 39 30
16 20 40 46 53 57 13 12 29 27 37 34 7 6 15 12 19 12 3 0 17 8 32 17 14 10 31
18 37 20 32 8 119 33 121 35 2 2 6 98 10 213 9 255 12 340 20 515 3 74 8 194
10 265 3 72 7 171 10 220 8 157 25 565 29 715 3 80 8 194 12 254 6 85 4 110
-6 116 -14 9 -31 118 -23 150 3 10 11 16 18 14 15 -6 23 50 30 206 2 52 7 145
10 205 3 61 7 171 10 245 2 74 9 225 15 335 5 110 10 237 10 283 l0 82 -144 0
c-124 0 -145 -2 -150 -16 -9 -23 11 -43 34 -37 15 4 20 0 20 -16 0 -17 -6 -21
-31 -21 -24 0 -29 -3 -25 -17 6 -20 -9 -51 -20 -41 -3 4 -6 18 -6 32 0 22 -5
25 -42 29 l-41 3 43 19 c32 14 42 23 42 42 0 22 -4 23 -60 23 -57 0 -60 -1
-50 -19 5 -11 10 -44 10 -75 0 -88 -31 -85 -38 4 -2 31 -10 50 -25 62 -18 14
-19 20 -8 27 9 6 10 11 2 15 -6 4 -11 21 -11 38 l0 31 -796 -6 c-472 -3 -800
-9 -806 -15 -6 -6 -4 -32 5 -68 8 -33 20 -86 27 -119 7 -33 26 -115 41 -181
16 -67 29 -130 29 -140 0 -16 2 -17 11 -4 9 12 10 10 6 -8 -6 -24 11 -111 83
-427 22 -99 45 -205 51 -235 21 -115 53 -235 66 -246 7 -6 11 -19 7 -28 -5
-14 3 -16 55 -16 34 0 61 4 61 10 0 6 -4 10 -10 10 -5 0 -10 5 -10 10 0 6 9
10 20 10 13 0 20 -7 20 -20 0 -16 7 -20 30 -20 22 0 28 -4 24 -15 -4 -8 -12
-15 -20 -15 -12 0 -14 -60 -12 -382 3 -382 3 -383 -21 -458 -14 -41 -24 -84
-23 -95 1 -12 -1 -14 -4 -7 -4 9 -18 -7 -38 -42 -35 -63 -125 -175 -142 -175
-6 -1 -19 -10 -29 -21 -10 -11 -24 -20 -32 -20 -7 0 -13 -4 -13 -8 0 -5 -12
-14 -26 -20 -14 -7 -22 -17 -19 -22 6 -9 -8 -15 -29 -11 -5 1 -42 -10 -83 -24
-157 -54 -362 -38 -511 39 -17 9 -37 16 -45 16 -27 0 -183 163 -225 235 -82
140 -84 155 -96 566 -10 316 -13 370 -27 385 -19 22 -24 150 -7 172 21 24 28
11 28 -51 l0 -63 46 6 46 5 4 59 c2 32 6 61 9 64 12 12 20 -13 19 -64 0 -30 3
-54 7 -54 3 0 22 48 42 108 20 59 47 136 60 172 75 201 127 357 122 370 -3 8
-3 11 1 7 10 -9 65 143 59 161 -3 7 -1 11 4 8 5 -3 18 22 31 57 12 34 41 116
65 182 24 66 46 133 49 149 3 16 10 34 16 40 5 5 10 19 10 31 0 12 4 25 9 30
5 6 21 44 35 86 21 59 26 95 26 166 l0 91 68 11 c37 6 108 13 157 16 50 3 124
10 165 15 78 10 132 15 265 25 89 7 291 28 490 50 72 8 162 17 200 20 39 2 93
7 120 10 136 13 272 28 285 30 8 2 20 4 27 4 7 1 18 13 25 29 12 26 18 27 98
33 47 3 322 6 613 7 l527 2 17 -34z m-3976 -418 c1 -7 2 -22 3 -33 1 -17 7
-19 42 -17 23 2 44 0 47 -5 3 -4 8 -32 11 -61 3 -29 8 -57 11 -62 6 -10 -29
-32 -38 -23 -4 3 -9 31 -13 63 -5 48 -9 56 -26 55 -23 -2 -40 -26 -37 -53 4
-45 -2 -72 -16 -72 -12 0 -15 15 -16 68 0 37 -2 83 -3 102 -1 19 -1 38 1 43 7
12 33 8 34 -5z m2319 -7 c5 -11 6 -22 2 -25 -5 -3 -7 -41 -6 -86 3 -74 2 -80
-16 -80 -18 0 -20 7 -21 68 -1 67 -1 135 0 140 4 10 32 -2 41 -17z m385 -93
c0 -80 -2 -93 -18 -96 -14 -3 -17 4 -18 35 -1 21 -3 63 -4 93 -3 58 9 87 29
71 8 -6 12 -44 11 -103z m2311 4 c1 -93 0 -102 -17 -102 -17 0 -19 9 -19 98 0
54 3 102 7 106 20 20 28 -8 29 -102z m2697 71 c3 -21 5 -68 6 -105 0 -61 -2
-68 -19 -68 -19 0 -20 7 -20 105 0 82 3 105 14 105 8 0 16 -15 19 -37z m-8098
-78 c0 -82 -3 -100 -15 -100 -12 0 -16 19 -18 103 -2 95 -1 103 15 100 16 -3
18 -15 18 -103z m1991 49 c2 -95 3 -100 28 -113 17 -10 29 -10 44 -2 16 9 20
23 24 85 3 77 12 101 28 76 10 -16 6 -144 -5 -171 -11 -29 -101 -31 -144 -5
-12 8 -16 168 -4 180 16 16 28 -4 29 -50z m2700 -24 c1 -62 5 -76 21 -87 15
-10 27 -11 47 -4 27 11 30 22 26 119 -1 39 1 43 20 40 11 -2 21 -6 20 -10 0
-5 0 -37 0 -72 0 -53 -4 -67 -25 -90 -30 -32 -81 -35 -117 -6 -23 17 -25 27
-27 95 -2 79 3 99 22 92 8 -2 12 -31 13 -77z m1099 55 c0 -16 8 -21 35 -23 53
-5 60 -16 60 -93 0 -55 -3 -69 -15 -69 -8 0 -16 6 -16 13 -2 12 -3 34 -7 90
-2 23 -6 27 -32 27 -29 0 -29 -1 -32 -62 -2 -46 -7 -63 -17 -63 -11 0 -14 17
-13 75 1 135 0 132 20 128 9 -2 17 -12 17 -23z m1599 9 c3 -9 6 -44 6 -78 0
-67 10 -86 47 -86 30 0 42 32 45 116 1 53 4 64 17 62 20 -4 25 -44 16 -125 -5
-52 -10 -63 -25 -63 -10 0 -22 -4 -25 -10 -10 -16 -67 -12 -87 7 -15 13 -18
32 -18 105 0 82 9 110 24 72z m-7891 -108 c0 -37 -4 -70 -6 -73 -16 -16 -27
16 -27 78 0 62 2 70 18 67 14 -3 17 -14 15 -72z m94 39 c12 -25 14 -38 6 -46
-7 -7 -8 -22 -3 -40 5 -17 5 -31 -1 -35 -11 -6 -23 2 -25 17 -1 5 -3 12 -4 17
-1 4 -1 21 0 39 1 21 -5 38 -19 50 -28 23 -26 33 4 33 19 0 29 -9 42 -35z
m137 29 c30 -11 17 -31 -19 -30 -44 1 -45 -16 -3 -27 31 -8 58 -31 58 -49 0
-19 -65 -48 -95 -42 -39 8 -52 21 -37 36 8 8 15 8 26 -1 17 -15 58 -11 63 5 3
10 -34 24 -72 28 -5 1 -12 14 -13 31 -5 44 41 69 92 49z m193 -19 c18 -26 16
-79 -4 -104 -17 -21 -36 -26 -78 -19 -16 2 -19 -2 -17 -24 4 -37 -16 -45 -29
-11 -9 25 -13 82 -10 155 1 26 2 26 63 24 46 -2 64 -8 75 -21z m221 9 c18 -13
22 -25 22 -74 l0 -58 -42 -4 c-52 -6 -88 6 -88 27 0 29 20 55 43 55 30 0 51
15 42 30 -5 8 -19 10 -41 5 -26 -4 -34 -2 -34 9 0 27 65 34 98 10z m166 -4
c16 -16 -3 -24 -30 -12 -15 7 -32 9 -41 4 -13 -8 -13 -11 2 -25 9 -10 26 -17
37 -17 31 0 48 -29 35 -57 -6 -13 -17 -24 -26 -25 -45 -4 -57 -4 -73 4 -10 5
-18 15 -18 23 0 17 16 20 25 5 3 -5 20 -10 36 -10 43 0 35 32 -9 41 -19 4 -39
12 -44 17 -15 15 -1 60 20 65 23 7 74 -1 86 -13z m304 -12 c2 -18 11 -28 28
-32 28 -7 23 -26 -6 -26 -13 0 -20 -8 -22 -27 -4 -37 -32 -37 -36 -1 -3 21 -9
27 -30 30 -36 4 -33 22 4 29 17 3 28 11 26 19 -5 21 7 42 21 38 6 -3 13 -16
15 -30z m1673 11 c5 -8 9 -40 9 -71 0 -45 -3 -58 -15 -58 -12 0 -15 13 -15 55
0 48 -3 57 -22 64 -31 12 -49 -13 -48 -64 3 -60 1 -65 -15 -65 -11 0 -15 12
-15 49 0 27 -3 56 -6 64 -3 8 1 21 9 29 19 18 106 16 118 -3z m143 11 c40 -15
31 -31 -15 -28 -51 4 -64 -17 -17 -27 41 -9 58 -22 58 -46 0 -46 -89 -62 -122
-22 -12 14 -8 15 34 9 47 -7 68 3 45 22 -6 6 -25 12 -42 14 -24 2 -31 8 -33
31 -6 51 32 70 92 47z m91 0 c4 -7 13 -7 25 0 25 13 68 3 80 -20 13 -24 10
-83 -6 -104 -17 -24 -67 -26 -72 -3 -2 12 3 17 17 17 23 0 37 36 26 70 -5 16
-13 20 -33 18 -27 -3 -27 -4 -29 -86 -1 -46 -3 -86 -6 -88 -2 -2 -11 -2 -19 1
-22 9 -25 205 -3 205 7 0 17 -5 20 -10z m320 0 c25 -9 26 -13 23 -76 l-3 -66
-47 -4 c-39 -3 -52 1 -68 18 -17 19 -18 24 -6 42 7 12 30 25 50 29 22 6 36 15
36 24 0 13 -8 14 -40 9 -31 -5 -40 -3 -40 8 0 25 49 34 95 16z m156 0 c10 -6
19 -15 19 -20 0 -14 -34 -12 -48 2 -9 9 -15 9 -23 1 -19 -19 -2 -43 31 -43 23
0 33 -6 42 -26 11 -23 9 -28 -12 -45 -29 -21 -58 -24 -95 -7 -53 24 -13 36 46
13 10 -4 19 0 23 11 8 20 -9 34 -41 34 -21 0 -43 25 -43 49 0 33 61 52 101 31z
m1994 -13 c9 -35 1 -132 -10 -130 -5 2 -12 29 -15 60 -5 57 -6 58 -35 58 -30
0 -30 -1 -33 -57 -2 -47 -6 -58 -20 -58 -15 0 -17 10 -14 73 l3 73 60 2 c53 2
59 0 64 -21z m154 9 c16 -19 -2 -29 -38 -21 -48 10 -45 -12 4 -34 37 -16 45
-25 45 -46 0 -34 -37 -52 -82 -39 -52 15 -48 35 6 28 36 -5 46 -4 46 7 0 13
-28 29 -77 44 -26 7 -27 13 -13 49 8 23 15 26 54 26 25 0 48 -6 55 -14z m77 3
c4 -8 9 -8 17 0 20 20 65 13 83 -14 17 -26 15 -98 -4 -117 -16 -16 -66 -14
-70 3 -2 11 4 15 20 15 20 -1 23 4 26 41 3 38 1 43 -22 49 -14 3 -29 3 -35 0
-5 -4 -9 -40 -9 -81 1 -80 -2 -91 -26 -82 -11 5 -15 24 -15 84 0 43 2 86 5 96
6 19 20 22 30 6z m319 -1 c23 -10 25 -16 25 -73 l0 -62 -47 -6 c-55 -6 -64 -3
-80 23 -18 28 13 63 55 62 26 0 32 3 32 20 0 18 -4 20 -40 14 -42 -7 -53 5
-22 23 23 14 46 13 77 -1z m149 2 c45 -17 31 -32 -21 -24 l-48 7 19 -22 c11
-11 27 -21 37 -21 51 0 59 -47 12 -77 -26 -17 -83 -8 -91 15 -5 17 28 28 38
12 10 -16 45 -9 45 10 0 8 -14 17 -31 20 -55 12 -66 29 -44 71 12 21 44 25 84
9z m2003 -3 c5 -6 6 -138 0 -143 -14 -14 -27 11 -27 51 0 58 -8 75 -35 75 -27
0 -37 -28 -29 -81 7 -41 -5 -54 -37 -44 -15 5 -18 10 -10 18 6 6 11 36 11 67
0 31 3 60 7 63 6 7 113 0 120 -6z m109 -2 c-10 -8 -24 -16 -30 -19 -6 -3 0
-13 14 -25 30 -24 22 -35 -19 -26 -26 6 -31 11 -31 36 0 31 23 47 65 48 19 0
20 0 1 -14z m140 6 c18 15 72 2 83 -20 13 -23 2 -92 -17 -113 -17 -21 -53 -23
-70 -6 -9 9 -12 5 -12 -19 0 -18 -4 -35 -10 -38 -6 -4 -10 32 -10 101 0 83 3
105 12 96 8 -8 15 -8 24 -1z m304 -1 c14 -8 18 -23 19 -79 l1 -70 -53 5 c-72
8 -77 10 -77 38 0 28 25 46 64 46 20 0 26 5 26 21 0 20 -4 21 -45 15 -30 -5
-45 -4 -45 4 0 24 76 38 110 20z m-473 -112 c30 -11 47 -38 24 -38 -22 0 -59
20 -64 34 -8 19 -3 20 40 4z m-8735 -1281 c3 -91 2 -97 -17 -97 -19 0 -20 6
-19 94 1 52 5 100 9 106 15 24 24 -8 27 -103z m5012 81 c8 -53 4 -178 -5 -179
-30 -6 -33 -1 -35 54 -1 31 1 57 5 57 5 0 6 11 3 25 -5 30 5 75 18 75 5 0 11
-15 14 -32z m386 -3 c0 -35 1 -36 33 -30 56 11 73 -17 69 -112 -1 -22 -7 -33
-17 -33 -11 0 -15 11 -15 41 0 50 -15 79 -40 79 -23 0 -22 2 -24 -62 -2 -44
-18 -79 -31 -66 -7 7 -13 177 -7 201 8 32 32 19 32 -18z m2316 -61 c1 -82 -9
-134 -24 -119 -8 7 -13 163 -6 193 2 13 10 22 16 20 8 -3 13 -36 14 -94z m383
83 c6 -8 8 -17 5 -20 -4 -3 -4 -13 0 -22 4 -12 10 -14 23 -6 12 6 26 5 44 -5
24 -12 28 -20 31 -76 3 -59 -5 -83 -24 -72 -4 3 -8 25 -8 49 0 59 -8 75 -36
75 -26 0 -26 -2 -28 -80 -1 -37 -4 -45 -20 -45 -17 0 -19 9 -20 103 0 57 1
106 3 108 8 7 18 4 30 -9z m-3793 -77 c0 -63 3 -75 21 -87 15 -10 27 -11 47
-4 29 12 28 9 30 101 1 51 4 65 16 65 12 0 15 -16 15 -84 -1 -75 -3 -85 -24
-103 -20 -15 -33 -17 -70 -12 -25 3 -50 10 -55 15 -11 10 -21 152 -12 174 3 9
12 15 19 12 8 -2 12 -28 13 -77z m-4220 22 c6 -4 14 -35 17 -70 4 -50 2 -64
-9 -69 -21 -8 -25 -1 -28 50 -4 55 -12 70 -37 62 -13 -4 -19 -2 -19 8 0 23 51
36 76 19z m146 -19 c2 -19 10 -29 26 -33 31 -7 29 -24 -3 -28 -20 -3 -25 -9
-25 -33 0 -24 -4 -30 -17 -27 -11 2 -18 13 -18 28 0 19 -6 26 -29 30 -17 3
-30 10 -30 15 0 6 13 12 30 15 24 5 29 10 29 33 -1 38 32 38 37 0z m4940 -3
c5 -13 8 -47 6 -74 l-3 -50 -48 -2 c-37 -2 -52 1 -68 17 -18 18 -19 23 -6 42
8 12 28 24 44 28 69 14 67 45 -3 34 -35 -5 -44 -3 -44 9 0 16 24 22 79 21 27
-1 36 -6 43 -25z m151 13 c4 -2 7 -8 7 -14 0 -12 -33 -12 -46 1 -6 6 -18 8
-28 4 -16 -6 -16 -8 0 -25 9 -11 25 -19 34 -19 9 0 24 -6 34 -13 14 -10 15
-18 7 -39 -11 -31 -59 -45 -90 -28 -26 14 -29 46 -3 35 27 -12 55 -11 59 2 2
6 -6 14 -19 18 -65 18 -79 36 -57 76 9 18 17 19 52 14 23 -4 45 -9 50 -12z
m307 -18 c0 -19 6 -24 33 -27 42 -4 37 -22 -8 -26 -31 -3 -34 -6 -29 -26 7
-28 -23 -45 -33 -19 -4 9 -1 19 5 21 21 7 2 22 -29 22 -38 0 -40 27 -1 32 20
2 26 8 24 22 -4 19 16 39 30 30 4 -3 8 -16 8 -29z m2228 19 c20 -14 23 -23 20
-75 -3 -59 -3 -59 -35 -61 -77 -4 -76 -4 -85 27 -9 34 9 55 48 55 30 0 40 18
20 38 -12 13 -18 14 -28 4 -7 -7 -21 -12 -32 -12 -20 1 -20 1 3 20 28 24 59
25 89 4z m142 6 c0 -5 5 -9 11 -7 6 1 14 -4 16 -10 6 -17 -29 -17 -45 -1 -9 9
-15 9 -23 1 -19 -19 -2 -43 31 -43 24 0 33 -6 40 -26 13 -34 15 -31 -25 -50
-29 -14 -40 -14 -64 -4 -41 16 -31 43 10 28 39 -13 66 -4 49 17 -7 8 -21 15
-32 15 -35 0 -57 18 -55 45 1 14 9 30 17 35 20 13 70 13 70 0z m330 -20 c0
-25 4 -30 25 -30 31 0 33 -17 3 -22 -16 -2 -24 -12 -28 -32 -7 -39 -28 -45
-32 -9 -3 24 -8 28 -40 31 -58 5 -42 32 18 32 20 0 24 5 24 30 0 20 5 30 15
30 10 0 15 -10 15 -30z m-8075 -1303 c9 -74 4 -111 -17 -115 -15 -3 -18 5 -18
51 0 64 9 117 21 117 4 0 11 -24 14 -53z m5400 21 c3 -18 6 -60 8 -92 2 -70
20 -89 61 -66 24 12 26 19 26 74 0 34 3 71 6 84 6 22 7 22 20 4 14 -20 18
-150 6 -168 -10 -13 -59 -34 -82 -34 -11 0 -34 7 -52 16 l-33 15 6 97 c8 111
6 102 19 102 5 0 12 -15 15 -32z m-4310 12 c4 -6 9 -53 11 -104 5 -94 -3 -123
-28 -98 -10 10 -20 189 -11 205 6 10 21 9 28 -3z m5020 -10 c8 -25 3 -167 -6
-182 -4 -6 -13 -8 -20 -6 -10 3 -12 27 -10 99 1 51 5 97 7 101 9 14 23 8 29
-12z m2123 -86 c-4 -90 -19 -109 -82 -109 -68 0 -76 13 -76 116 0 72 3 89 15
89 12 0 15 -15 15 -71 0 -82 11 -109 45 -109 32 0 41 21 47 101 10 126 43 110
36 -17z m-7532 88 c6 -4 12 -27 13 -52 1 -25 3 -64 4 -88 2 -33 -1 -43 -16
-48 -10 -3 -20 -4 -22 -2 -11 11 -8 198 3 198 4 0 12 -4 18 -8z m2000 -33 c3
-133 4 -136 22 -137 9 0 29 4 45 10 25 10 27 15 28 67 1 31 4 67 8 81 l7 25
12 -22 c11 -20 8 -156 -4 -175 -11 -18 -74 -19 -113 -2 l-41 18 0 81 c0 45 3
85 7 89 14 14 28 -2 29 -35z m705 29 c1 -7 2 -52 4 -100 2 -65 -1 -88 -11 -92
-7 -3 -15 -2 -18 2 -4 7 -9 124 -7 180 1 23 30 32 32 10z m394 -18 c0 -25 9
-32 33 -22 7 2 24 0 38 -6 22 -11 24 -17 24 -76 0 -53 -3 -64 -14 -60 -18 7
-30 56 -21 83 8 25 -29 39 -51 20 -12 -10 -15 -24 -10 -62 7 -46 6 -48 -16
-45 -21 3 -22 8 -23 78 -1 41 1 85 3 98 6 32 37 25 37 -8z m5012 -73 c3 -97 2
-98 -20 -95 -12 2 -21 6 -19 11 1 4 2 48 2 98 0 81 2 90 18 87 15 -3 17 -17
19 -101z m-8683 9 c0 -94 -13 -111 -80 -110 -57 1 -79 19 -35 29 17 3 39 4 50
0 26 -8 32 4 32 72 0 70 7 95 22 90 8 -3 12 -31 11 -81z m8179 37 c9 -35 7
-142 -2 -147 -14 -9 -42 5 -34 17 3 5 5 37 4 69 -1 32 1 63 4 68 10 15 23 12
28 -7z m-8020 -5 c17 -14 31 -134 16 -144 -15 -9 -49 19 -38 32 7 9 8 37 0 87
0 4 -12 7 -26 7 -23 0 -25 -3 -25 -52 0 -59 -13 -89 -29 -73 -13 13 -14 91 -3
148 3 12 87 8 105 -5z m156 3 c21 -14 5 -28 -27 -23 -48 7 -46 -15 3 -37 41
-18 46 -24 43 -48 -2 -22 -9 -29 -38 -34 -23 -5 -44 -2 -62 7 -37 19 -27 35
15 23 42 -12 47 -11 47 4 0 7 -18 20 -40 30 -42 18 -54 49 -28 75 14 14 67 16
87 3z m186 -11 c13 -11 16 -26 12 -63 -5 -60 -15 -70 -66 -70 -37 0 -41 -2
-41 -24 0 -19 -5 -24 -22 -21 -20 3 -21 8 -19 93 1 49 4 92 6 96 8 12 113 3
130 -11z m230 3 c4 -10 9 -43 12 -74 l4 -56 -58 -6 c-31 -3 -60 -4 -65 -1 -4
3 -8 21 -8 39 0 30 4 35 28 40 65 14 74 42 12 37 -44 -3 -54 13 -17 28 38 15
84 12 92 -7z m128 6 c20 -5 37 -14 37 -19 0 -12 -30 -13 -49 -1 -16 10 -41 4
-41 -10 0 -6 20 -18 45 -29 37 -16 45 -24 45 -45 0 -28 -5 -31 -68 -39 -45 -6
-61 7 -49 39 5 12 10 12 34 0 35 -19 53 -19 53 -1 0 15 -21 26 -51 26 -10 0
-25 13 -34 29 -14 28 -14 31 7 45 27 19 23 19 71 5z m205 -66 c2 -60 0 -73
-13 -73 -8 0 -15 6 -16 13 -1 6 -2 21 -3 32 -1 11 -3 32 -4 48 -1 16 -8 27
-17 27 -8 0 -15 7 -15 16 0 11 8 14 33 12 l32 -3 3 -72z m124 65 c0 -7 1 -20
2 -28 1 -8 11 -16 24 -18 27 -4 30 -32 3 -32 -14 0 -21 -8 -23 -27 -2 -17 -9
-28 -18 -28 -9 0 -16 11 -18 28 -3 21 -8 27 -28 27 -19 0 -25 5 -22 18 2 11
13 17 28 17 20 0 26 6 28 28 3 27 21 38 24 15z m1594 -66 c0 -63 -2 -72 -18
-72 -16 0 -18 9 -18 68 0 38 3 72 7 76 18 18 28 -7 29 -72z m82 66 c17 -17 16
-141 0 -136 -8 3 -14 26 -16 56 -3 46 -6 53 -28 58 -13 3 -24 12 -24 20 0 17
51 19 68 2z m164 -4 c6 -4 6 -10 -1 -17 -7 -7 -15 -6 -25 2 -16 13 -59 6 -54
-10 2 -5 23 -19 48 -31 44 -23 54 -46 30 -72 -10 -10 -97 -12 -106 -3 -15 14
10 27 41 21 52 -9 53 13 2 36 -77 34 -65 99 16 86 22 -4 44 -9 49 -12z m172
-4 c4 -5 10 -28 13 -52 6 -59 -11 -81 -65 -80 -38 1 -42 -2 -42 -23 0 -28 -17
-42 -32 -27 -10 10 -12 177 -3 192 6 9 118 0 129 -10z m231 4 c10 -10 14 -26
11 -37 -3 -12 -1 -26 4 -31 4 -6 6 -24 3 -39 -4 -22 -10 -27 -24 -24 -11 3
-32 0 -48 -6 -59 -22 -88 49 -31 78 16 8 36 15 45 15 8 0 15 7 15 16 0 14 -7
15 -45 10 -48 -8 -60 4 -22 22 33 16 73 14 92 -4z m150 3 c28 -21 10 -40 -20
-21 -13 9 -29 13 -35 9 -21 -13 -9 -32 29 -45 46 -15 57 -34 37 -64 -15 -24
-62 -32 -82 -15 -21 17 -7 29 26 22 22 -4 30 -2 30 8 0 14 -43 39 -66 39 -18
0 -27 36 -14 60 13 24 66 28 95 7z m310 3 c3 -5 -1 -10 -10 -10 -9 0 -13 5
-10 10 3 6 8 10 10 10 2 0 7 -4 10 -10z m1681 -1 c10 -18 12 -139 2 -146 -17
-10 -27 11 -30 67 -3 43 -8 56 -22 58 -28 6 -40 -14 -38 -61 3 -50 -11 -78
-29 -60 -12 12 -15 125 -5 141 7 12 115 12 122 1z m138 5 c27 -10 18 -27 -11
-21 -64 12 -73 -25 -10 -45 43 -13 57 -38 39 -66 -14 -21 -127 -21 -119 1 2 7
17 11 33 9 16 -1 38 4 49 12 20 15 20 15 -2 16 -12 0 -25 5 -28 10 -3 6 -15
10 -26 10 -15 0 -19 7 -19 33 0 19 3 37 7 40 8 9 66 9 87 1z m189 -4 c4 0 7
-31 7 -70 l0 -70 -49 0 c-44 0 -49 -2 -55 -26 -5 -17 -12 -24 -24 -22 -9 2
-15 11 -13 19 2 8 3 23 2 34 -2 36 0 129 4 135 2 4 30 5 62 4 32 -2 61 -3 66
-4z m217 -4 c24 -5 25 -9 25 -68 l0 -63 -57 -3 c-49 -3 -58 0 -68 18 -13 23
-6 55 9 45 5 -3 12 -1 16 5 3 5 19 10 35 10 28 0 48 24 29 36 -6 3 -26 3 -45
0 -19 -4 -34 -3 -34 2 0 11 41 30 55 26 6 -1 21 -5 35 -8z m166 0 c26 -20 12
-31 -24 -18 -16 5 -35 6 -42 2 -21 -13 4 -37 45 -44 30 -6 35 -11 35 -34 0
-37 -17 -52 -59 -52 -47 0 -62 11 -54 38 6 26 10 27 30 7 17 -18 44 -16 50 2
2 6 -11 14 -29 18 -18 4 -38 11 -44 17 -13 9 -8 45 9 66 13 16 59 15 83 -2z
m1991 -8 c14 -30 15 -115 2 -124 -18 -11 -30 10 -33 57 -1 25 -6 50 -10 57 -4
7 -4 17 -1 22 11 17 31 11 42 -12z m134 12 c31 -17 22 -28 -20 -23 -56 8 -59
-12 -6 -33 85 -32 80 -81 -8 -91 -40 -5 -46 -3 -52 17 -9 29 0 36 29 21 24
-13 46 -8 46 9 0 5 -17 14 -39 20 -27 7 -41 17 -44 32 -12 45 45 74 94 48z
m187 -14 c23 -23 20 -105 -4 -123 -13 -10 -23 -9 -50 2 -36 15 -36 14 -38 -25
-1 -17 -7 -25 -18 -25 -10 0 -18 3 -18 8 0 4 0 48 0 98 l0 91 56 -4 c33 -3 62
-11 72 -22z m236 9 c10 -10 14 -33 13 -73 l-2 -57 -54 -3 c-58 -3 -71 5 -71
45 0 19 8 25 45 34 28 7 45 17 45 26 0 12 -8 14 -40 9 -31 -5 -40 -3 -40 8 0
26 80 35 104 11z m-4934 -25 c0 -6 11 -15 25 -20 14 -5 25 -14 25 -20 0 -5
-11 -10 -25 -10 -20 0 -25 -5 -25 -24 0 -14 -4 -27 -9 -30 -13 -8 -34 21 -28
38 4 11 -3 16 -26 18 -39 4 -39 22 0 26 15 2 32 10 36 18 9 16 27 19 27 4z
m2770 -29 c0 -12 -26 -21 -63 -21 -21 0 -27 -3 -19 -8 7 -5 10 -16 6 -25 -9
-25 -24 -20 -24 8 0 21 -5 25 -29 25 -16 0 -31 6 -35 15 -4 13 8 15 79 15 47
0 85 -4 85 -9z m-5315 -1319 c0 -58 -5 -96 -12 -103 -7 -7 -32 -13 -55 -15
-46 -3 -83 4 -74 13 3 4 1 12 -5 19 -15 19 -23 135 -10 154 18 26 31 -7 31
-81 0 -61 2 -67 23 -73 12 -3 33 -3 45 1 20 5 22 11 22 87 0 46 3 86 7 90 20
19 28 -8 28 -92z m584 -7 c-1 -58 -5 -107 -8 -110 -28 -17 -45 71 -33 173 4
33 9 42 24 42 17 0 18 -8 17 -105z m387 70 c12 -30 18 -34 39 -29 41 10 55
-10 55 -82 0 -50 -3 -64 -15 -64 -13 0 -22 40 -16 74 4 21 -12 44 -34 48 -21
5 -25 1 -29 -26 -3 -17 -4 -44 -3 -61 2 -24 -2 -31 -19 -33 -20 -3 -21 1 -18
100 2 118 1 108 15 108 5 0 17 -16 25 -35z m4309 -75 c7 -81 3 -100 -19 -100
-18 0 -26 32 -26 112 0 133 33 124 45 -12z m701 6 c1 -75 -2 -99 -13 -103 -24
-9 -27 5 -26 97 1 92 7 114 26 107 8 -2 12 -37 13 -101z m-7714 72 c2 -14 12
-22 27 -25 14 -2 33 -11 43 -20 10 -9 18 -12 19 -7 0 5 4 -2 8 -16 4 -14 6
-44 3 -68 -3 -33 -8 -42 -21 -40 -12 2 -16 15 -17 48 -1 25 -2 50 -3 56 -1 7
-14 14 -31 16 l-30 5 0 -59 c0 -45 -3 -58 -15 -58 -12 0 -15 17 -15 95 0 76 3
95 14 95 8 0 16 -10 18 -22z m7134 -2 c6 -25 -1 -133 -11 -158 -7 -17 -50 -29
-72 -21 -21 8 -15 18 17 30 29 11 30 14 30 70 0 65 8 103 21 103 5 0 11 -11
15 -24z m963 10 c13 -15 10 -164 -3 -185 -13 -21 -34 0 -30 32 1 18 3 62 3
100 1 67 8 80 30 53z m-6208 -39 c11 -8 18 -33 21 -80 4 -60 2 -67 -15 -67
-15 0 -18 7 -16 38 3 53 -7 77 -35 80 -27 2 -36 -18 -36 -81 0 -27 -4 -37 -12
-34 -9 2 -13 26 -13 73 l0 69 32 0 c18 1 35 4 39 8 10 10 16 9 35 -6z m5403 0
c14 -10 16 -25 14 -76 -4 -85 -26 -95 -30 -14 -3 55 -4 58 -30 61 -27 3 -28 2
-28 -43 0 -50 -15 -89 -31 -80 -5 4 -9 35 -9 70 0 54 3 66 20 75 11 6 20 7 20
3 0 -4 5 -2 12 5 16 16 40 15 62 -1z m881 -7 c3 -11 11 -20 16 -20 10 0 13
-113 2 -123 -17 -17 -30 16 -25 64 4 45 2 51 -17 56 -24 6 -26 14 -9 31 17 17
26 15 33 -8z m-6115 -5 c29 -16 14 -26 -35 -22 -45 3 -43 -16 4 -31 27 -9 41
-20 41 -31 0 -50 -69 -77 -110 -42 l-25 22 45 -3 c56 -4 62 19 10 37 -25 8
-36 19 -38 35 -7 45 55 65 108 35z m154 3 c33 -14 45 -70 24 -107 -12 -22 -21
-26 -56 -25 -24 0 -42 -4 -43 -10 -1 -6 -2 -20 -3 -31 0 -11 -8 -20 -16 -20
-12 0 -16 18 -18 87 -2 80 -1 88 20 102 27 19 58 20 92 4z m253 0 c5 -7 9 -41
9 -76 l-1 -64 -48 -3 c-54 -3 -89 21 -80 56 5 18 17 24 68 31 30 5 32 38 3 38
-13 0 -30 -4 -38 -9 -21 -14 -31 -3 -17 19 14 23 88 28 104 8z m153 -7 c12
-23 -6 -33 -31 -18 -19 12 -53 2 -44 -13 3 -5 14 -10 23 -10 61 0 85 -80 27
-90 -41 -8 -75 0 -82 17 -9 22 5 28 31 13 27 -14 60 -7 54 12 -3 7 -22 18 -44
24 -44 12 -55 36 -28 65 23 26 80 26 94 0z m4828 -1 l26 -21 -42 7 c-35 5 -42
4 -42 -10 0 -10 11 -19 31 -23 44 -8 60 -46 32 -75 -17 -16 -28 -19 -55 -14
-45 9 -66 22 -52 36 7 7 20 6 42 -2 17 -7 34 -9 38 -5 11 11 -5 37 -23 37 -10
0 -28 7 -40 15 -27 19 -20 51 16 64 37 14 40 13 69 -9z m181 6 c7 -8 14 -35
15 -60 4 -58 -16 -79 -71 -74 -36 3 -38 2 -35 -24 3 -23 -1 -28 -18 -28 -20 0
-21 4 -18 93 l3 92 35 6 c59 11 77 10 89 -5z m227 0 c17 -12 20 -25 20 -76
l-1 -62 -44 -3 c-54 -4 -81 8 -81 38 0 35 12 45 55 49 27 2 40 8 40 18 0 12
-11 14 -50 13 l-50 -3 24 20 c27 24 59 26 87 6z m162 2 c25 -25 14 -36 -28
-25 -22 6 -42 8 -46 4 -13 -13 18 -37 47 -37 22 0 32 -6 39 -26 13 -34 14 -31
-21 -50 -42 -21 -99 -12 -99 18 0 15 4 18 18 13 9 -4 30 -10 45 -13 24 -4 28
-1 25 14 -2 12 -18 22 -46 29 -24 5 -43 13 -43 18 1 4 1 16 1 26 0 32 83 54
108 29z m310 -21 c2 -16 11 -29 25 -33 l22 -7 -23 -8 c-16 -6 -22 -16 -22 -39
0 -39 -27 -41 -32 -3 -2 22 -9 29 -32 33 -35 6 -37 24 -2 28 17 2 25 11 30 33
7 37 30 34 34 -4z m-8098 -7 c0 -14 9 -20 35 -22 48 -4 49 -22 3 -26 -32 -3
-38 -7 -38 -27 0 -24 -16 -42 -27 -31 -3 3 -6 18 -7 33 -1 23 -5 27 -30 28
-16 0 -31 6 -33 13 -3 8 7 12 31 12 32 0 36 3 36 25 0 18 4 23 15 19 8 -4 15
-14 15 -24z m5398 8 c-2 -19 3 -24 30 -28 43 -7 46 -24 4 -28 -30 -3 -33 -6
-28 -28 4 -13 4 -24 2 -24 -2 0 -11 -3 -19 -6 -11 -4 -16 2 -19 23 -2 22 -9
29 -30 31 -16 2 -28 9 -28 17 0 8 12 15 28 17 15 2 28 10 28 18 3 28 4 30 20
30 10 0 14 -7 12 -22z m-2677 -18 c44 -23 44 -34 -1 -43 -18 -4 -30 -13 -30
-22 0 -8 -8 -15 -17 -15 -13 0 -14 3 -5 12 21 21 13 28 -29 28 -46 0 -51 23
-6 28 15 2 27 10 27 18 0 19 14 18 61 -6z m5347 -524 c72 -28 120 -57 146 -85
10 -11 22 -18 27 -15 20 12 126 -190 134 -255 1 -14 3 -110 4 -212 1 -184 1
-186 26 -213 14 -15 25 -30 26 -34 9 -70 5 -103 -12 -113 -18 -9 -19 -5 -19
51 0 33 -4 60 -10 60 -6 0 -10 -175 -12 -463 l-3 -463 -37 -75 c-83 -168 -222
-259 -394 -259 -39 0 -74 -3 -77 -6 -14 -14 15 -44 42 -44 45 0 71 -36 67 -95
-2 -37 -7 -51 -19 -53 -14 -3 -17 5 -17 52 0 47 -3 56 -21 61 -29 10 -39 -4
-44 -60 -4 -49 -16 -72 -32 -62 -5 3 -9 51 -8 106 l1 101 -165 0 c-91 0 -172
-4 -179 -8 -9 -6 -11 -32 -7 -101 4 -77 3 -93 -11 -98 -26 -10 -30 8 -25 105
l6 92 -337 0 -338 0 -2 -57 c-1 -61 0 -95 5 -100 2 -1 17 -6 34 -9 42 -8 58
21 54 99 -2 49 0 57 16 57 16 0 18 -9 18 -75 0 -85 -11 -102 -67 -111 -28 -5
-43 -1 -67 17 -30 22 -31 25 -31 101 l0 78 -675 0 c-468 0 -675 -3 -675 -11 0
-6 -5 -7 -12 -2 -7 4 -54 9 -104 10 -76 2 -93 0 -98 -13 -9 -25 2 -34 42 -34
20 0 42 -4 47 -8 14 -9 14 -125 1 -134 -17 -12 -26 2 -26 40 0 61 -10 82 -36
82 -21 0 -24 -5 -26 -42 0 -24 -1 -50 0 -60 2 -18 -19 -30 -34 -20 -6 4 -8 46
-6 94 3 70 7 88 21 92 9 3 -27 3 -79 0 -52 -4 -139 -5 -192 -4 l-98 1 -2 -73
c0 -40 -1 -81 0 -90 1 -12 -5 -18 -18 -18 -22 0 -23 3 -20 108 l2 72 -271 0
-271 0 0 -64 c0 -35 -3 -72 -6 -81 -9 -21 -56 -45 -92 -45 -51 0 -62 17 -69
108 l-6 82 -771 0 c-424 0 -777 -4 -785 -9 -22 -14 -2 -33 28 -26 43 9 61 -12
63 -76 1 -30 -2 -61 -6 -67 -14 -23 -26 -1 -26 46 0 58 -10 75 -41 70 -23 -3
-24 -6 -21 -60 3 -53 1 -58 -17 -58 -18 0 -21 6 -22 53 -2 131 2 122 -54 125
-27 1 -106 -1 -175 -5 l-125 -8 2 -82 c1 -75 -1 -83 -18 -83 -20 0 -20 -1 -23
105 l-1 60 -270 0 -270 0 3 -62 c3 -56 1 -65 -22 -88 -16 -16 -35 -25 -53 -24
-32 1 -86 16 -64 18 11 1 10 4 -4 15 -13 10 -20 30 -23 75 -4 57 -3 61 18 61
20 0 21 -4 19 -62 -2 -55 0 -63 19 -71 51 -23 83 21 78 108 l-1 30 -345 6
c-201 3 -358 10 -375 16 -47 16 -107 49 -135 73 -14 12 -30 25 -36 28 -22 14
-88 108 -112 162 -25 54 -26 61 -33 375 -4 176 -7 363 -8 416 l-1 96 -32 9
c-18 6 -33 16 -33 24 0 16 6 16 41 6 15 -4 24 -2 28 9 4 10 -5 19 -28 29 -18
8 -37 19 -41 25 -10 17 22 61 45 61 19 0 20 7 20 178 0 144 4 193 19 251 11
40 24 78 30 84 6 6 11 17 11 24 0 22 92 123 145 159 17 11 55 31 85 44 l55 23
720 9 c608 7 1790 12 6001 26 l510 2 62 -24z m-8040 -820 l3 -77 42 3 42 3 3
70 c5 119 42 114 42 -6 0 -56 -3 -69 -24 -88 -21 -20 -29 -21 -82 -14 l-59 8
-3 79 c-3 87 1 110 21 104 8 -3 13 -31 15 -82z m8806 68 c9 -24 7 -147 -3
-163 -5 -8 -16 -11 -26 -8 -9 4 -13 12 -9 18 4 6 6 47 5 90 -2 63 1 79 12 79
8 0 18 -7 21 -16z m-8521 -35 c15 -9 17 -21 15 -77 -4 -81 -22 -85 -26 -7 -3
49 -6 56 -28 61 -14 4 -27 4 -30 2 -2 -3 -5 -29 -7 -59 -1 -40 -6 -55 -18 -57
-20 -4 -29 40 -21 103 l4 42 46 1 c26 0 55 -4 65 -9z m8263 -3 c26 -20 10 -32
-25 -19 -30 11 -58 2 -47 -15 3 -6 19 -13 35 -17 16 -3 37 -15 46 -25 16 -18
16 -20 -9 -44 -27 -28 -41 -31 -80 -16 -42 16 -32 33 15 25 36 -6 40 -5 37 11
-2 12 -17 22 -41 28 -26 7 -37 15 -37 28 0 10 -1 21 -1 26 -2 10 42 32 67 32
11 0 29 -6 40 -14z m166 0 c21 -9 29 -42 21 -89 -7 -44 -44 -67 -75 -48 -30
19 -40 13 -33 -19 6 -26 4 -30 -14 -30 -20 0 -26 13 -23 50 1 8 2 45 3 81 l3
66 50 -2 c28 -1 58 -6 68 -9z m241 -1 c10 -10 15 -34 15 -74 l-1 -59 -42 -4
c-58 -4 -70 -1 -85 27 -16 30 0 55 35 55 35 0 55 10 55 27 0 12 -8 14 -39 9
-45 -7 -65 9 -29 23 35 15 75 13 91 -4z m-9203 -1322 c0 -21 4 -23 45 -23 40
0 45 -3 46 -22 1 -13 3 -40 4 -60 2 -37 -18 -69 -33 -54 -4 4 -7 29 -7 54 0
45 -1 47 -30 47 -29 0 -29 -1 -26 -46 2 -39 -1 -47 -18 -52 -11 -2 -22 -2 -25
1 -8 7 -8 176 0 197 6 14 8 14 25 -1 11 -9 19 -28 19 -41z m2145 -23 c12 0 25
4 31 9 5 6 18 3 34 -9 52 -39 18 -164 -39 -145 -27 8 -27 18 2 30 17 8 22 18
22 50 0 33 -4 41 -21 43 -24 3 -58 -24 -48 -39 3 -5 5 -35 5 -66 0 -53 -13
-79 -33 -67 -11 7 -7 183 4 190 5 3 5 11 2 17 -5 8 -3 8 7 0 7 -7 22 -13 34
-13z m-1930 -21 c0 -19 7 -25 30 -29 37 -6 37 -24 -1 -30 -25 -5 -29 -9 -26
-33 3 -20 -1 -27 -13 -27 -12 0 -16 7 -13 28 3 24 -1 27 -29 30 -44 4 -45 32
-2 32 28 0 31 3 25 24 -3 12 -3 26 1 30 13 12 28 -1 28 -25z m1668 19 c18 -14
30 -117 16 -140 -14 -23 -28 4 -31 62 -3 51 -5 55 -30 58 -30 4 -35 -8 -40
-83 -5 -66 -23 -45 -26 29 -2 49 1 72 10 77 20 13 82 11 101 -3z m145 6 c12
-4 22 -13 22 -21 0 -12 -8 -13 -40 -8 -22 4 -40 3 -40 -2 0 -16 24 -33 47 -33
13 0 29 -11 39 -25 16 -24 16 -27 -2 -40 -34 -25 -72 -28 -102 -9 -22 15 -24
19 -10 22 9 2 25 -1 35 -7 19 -10 53 2 53 19 0 5 -18 14 -40 20 -57 15 -80 63
-37 80 27 11 45 12 75 4z m417 -8 c16 -11 20 -27 20 -78 l0 -63 -40 -1 c-63 0
-85 11 -85 45 0 24 5 30 33 36 17 4 36 8 42 9 5 1 11 9 13 20 4 17 0 18 -44
11 l-49 -7 19 21 c22 24 64 27 91 7z m158 0 c9 -7 17 -16 17 -20 0 -11 -38 -6
-42 6 -6 16 -38 2 -38 -16 0 -9 16 -19 39 -26 44 -12 53 -25 38 -55 -13 -27
-27 -35 -58 -35 -30 0 -67 34 -49 45 7 4 17 2 23 -4 6 -6 21 -11 34 -11 33 0
29 29 -4 36 -68 14 -87 73 -28 85 45 10 49 9 68 -5z m313 -15 c5 -25 12 -30
38 -33 40 -4 36 -22 -6 -28 -26 -4 -33 -10 -33 -27 0 -13 -3 -23 -7 -23 -5 0
-12 0 -18 0 -5 0 -10 11 -10 24 0 18 -6 26 -22 28 -35 5 -34 28 1 28 28 0 31
3 31 30 0 39 19 39 26 1z m1677 10 c14 -11 15 -95 2 -129 -8 -22 -24 -4 -23
26 1 50 -13 92 -31 92 -29 0 -41 -22 -41 -77 0 -49 -1 -52 -18 -42 -15 10 -18
22 -14 68 2 31 5 62 7 69 5 15 98 10 118 -7z m153 4 c26 -19 11 -29 -24 -17
-35 12 -64 0 -44 -20 6 -6 27 -17 44 -22 44 -15 51 -57 13 -74 -34 -16 -57
-15 -81 2 -15 12 -16 17 -7 27 10 10 16 9 30 -4 13 -11 23 -13 36 -5 23 13 5
38 -28 38 -12 0 -27 6 -33 13 -13 15 -12 59 1 68 16 11 74 8 93 -6z m172 -5
c20 -17 22 -25 16 -65 -4 -28 -14 -51 -26 -59 -21 -15 -58 -10 -58 7 0 22 -23
-11 -24 -35 -1 -14 -8 -24 -20 -26 -16 -3 -18 1 -14 35 3 21 1 50 -3 66 -5 18
-4 27 4 28 8 0 8 2 -1 6 -10 4 -10 8 -1 19 9 11 8 14 -2 14 -33 0 10 19 51 23
25 2 47 4 50 5 3 1 15 -7 28 -18z m237 4 c12 -12 15 -32 13 -77 l-3 -61 -45
-2 c-51 -2 -90 18 -90 45 0 21 43 46 76 43 18 -1 24 3 24 19 0 19 -4 21 -45
15 -48 -8 -59 2 -22 20 33 17 74 16 92 -2z m174 1 c2 -3 -1 -11 -7 -17 -9 -9
-20 -10 -41 -1 -16 6 -35 7 -42 2 -20 -12 5 -36 46 -43 44 -9 56 -39 24 -67
-25 -22 -43 -24 -87 -8 -20 7 -29 15 -25 25 7 18 22 18 42 0 11 -10 23 -11 39
-5 30 11 21 24 -26 39 -49 16 -56 24 -48 54 4 17 14 26 34 29 29 5 82 0 91 -8z
m1960 1 c15 -17 11 -142 -4 -139 -5 2 -11 23 -11 48 -2 65 -9 77 -41 73 -26
-3 -28 -7 -30 -51 -2 -57 -9 -81 -22 -73 -5 3 -8 36 -7 73 1 62 3 68 26 74 42
12 77 10 89 -5z m142 4 c5 0 9 -6 9 -13 0 -9 -11 -12 -36 -9 -31 4 -35 2 -32
-14 2 -12 13 -19 33 -21 30 -2 55 -25 55 -50 0 -7 -11 -20 -25 -29 -20 -13
-33 -15 -58 -8 -33 10 -51 44 -23 44 9 0 16 -4 16 -10 0 -5 13 -10 29 -10 24
0 28 3 24 20 -3 12 -14 20 -27 20 -55 1 -77 61 -28 78 15 6 33 9 40 6 8 -2 18
-4 23 -4z m200 -35 c14 -81 -14 -121 -73 -104 -25 7 -28 4 -34 -27 -6 -35 -17
-43 -30 -22 -13 21 -1 178 15 188 5 3 33 5 62 5 l54 0 6 -40z m219 29 c5 -5
11 -22 12 -37 1 -15 6 -27 11 -27 4 0 4 -7 -1 -16 -5 -9 -7 -25 -5 -35 3 -11
1 -19 -3 -20 -5 0 -28 -2 -51 -5 -33 -3 -46 0 -61 17 -28 29 -9 69 33 69 17 0
37 5 45 10 13 9 13 11 0 20 -8 6 -27 8 -42 6 -26 -5 -39 10 -23 26 9 9 74 3
85 -8z m158 -7 c3 -16 -1 -18 -27 -12 -17 3 -35 3 -41 0 -18 -11 7 -32 45 -39
32 -6 35 -10 35 -41 0 -31 -3 -34 -39 -40 -44 -7 -81 7 -81 31 0 12 5 14 18 8
27 -12 75 -10 79 3 2 6 -10 14 -28 18 -89 20 -94 95 -6 92 32 -2 43 -6 45 -20z
m312 -18 c0 -15 7 -19 31 -19 38 0 35 -24 -4 -28 -20 -2 -27 -10 -29 -30 -4
-35 -33 -37 -33 -2 0 21 -5 26 -32 28 -43 4 -45 32 -3 32 18 0 30 5 30 13 0
17 21 38 32 31 4 -3 8 -14 8 -25z m-2665 -21 c38 -4 38 -21 -1 -28 -23 -4 -29
-11 -29 -30 0 -16 -7 -26 -19 -28 -15 -3 -18 0 -13 17 6 24 -8 38 -43 43 -35
4 -31 22 5 26 17 2 34 8 39 13 6 5 14 5 20 0 6 -5 25 -11 41 -13z m-2768 -300
c-3 -7 -5 -2 -5 12 0 14 2 19 5 13 2 -7 2 -19 0 -25z m5770 -15 c21 -15 29
-31 33 -66 3 -25 3 -45 0 -44 -3 1 -15 -8 -26 -19 -21 -21 -26 -22 -655 -28
-1101 -11 -4663 -21 -4693 -14 -38 10 -55 35 -56 84 0 31 6 46 26 65 l26 24
896 3 c493 1 1658 6 2587 10 2046 9 1829 11 1862 -15z m-5788 -26 c12 -13 24
-39 27 -58 5 -29 1 -39 -26 -64 l-31 -30 -1113 -3 c-1251 -4 -1135 -12 -1143
76 -4 37 -1 52 14 69 25 28 -4 28 1274 31 l975 2 23 -23z m48 -69 c-3 -7 -5
-2 -5 12 0 14 2 19 5 13 2 -7 2 -19 0 -25z m-2437 -168 c0 -5 -2 -10 -4 -10
-3 0 -8 5 -11 10 -3 6 -1 10 4 10 6 0 11 -4 11 -10z m338 -307 c-21 -2 -55 -2
-75 0 -21 2 -4 4 37 4 41 0 58 -2 38 -4z m-171 -9 c-3 -3 -12 -4 -19 -1 -8 3
-5 6 6 6 11 1 17 -2 13 -5z m5780 0 c56 -11 82 -98 44 -145 l-19 -24 -584 -6
c-320 -4 -1064 -8 -1653 -9 -588 -1 -1621 -5 -2295 -9 -674 -3 -1243 -3 -1265
1 -45 7 -81 45 -79 80 2 33 24 76 43 84 14 6 906 11 4686 27 352 1 742 3 866
5 125 1 240 -1 256 -4z m2240 -16 c32 -30 32 -96 1 -125 -23 -21 -26 -21 -880
-25 -567 -2 -854 -6 -850 -13 3 -5 -7 2 -22 17 -51 50 -42 134 17 158 12 5
402 9 866 9 l845 1 23 -22z m-7329 -357 c3 -25 7 -31 19 -27 9 4 31 4 49 0
l34 -6 0 -64 c0 -55 -3 -64 -18 -64 -15 0 -18 8 -18 53 1 51 0 52 -29 52 -28
0 -29 -2 -32 -50 -4 -51 -18 -81 -27 -54 -7 21 -14 172 -9 187 9 23 28 6 31
-27z m2322 -77 c0 -91 -1 -94 -22 -94 -22 0 -23 3 -21 95 2 105 7 122 29 104
10 -8 14 -37 14 -105z m385 81 c0 -27 3 -30 27 -27 54 5 68 -12 68 -83 0 -56
-3 -65 -18 -65 -15 0 -17 9 -17 58 0 55 -1 57 -27 60 -25 3 -28 0 -30 -30 0
-18 0 -45 1 -60 2 -22 -2 -28 -18 -28 -24 0 -23 -1 -27 100 -3 90 2 112 24
108 11 -2 17 -13 17 -33z m2700 16 c3 -10 4 -25 3 -31 -2 -9 11 -14 39 -15 23
-2 46 -6 51 -9 9 -5 6 -95 -4 -125 -9 -27 -23 4 -27 54 -3 46 -5 50 -30 53
-27 3 -27 3 -27 -57 0 -58 -1 -61 -24 -61 -25 0 -25 1 -22 93 2 89 8 117 26
117 5 0 11 -9 15 -19z m2303 6 c7 -7 11 -51 10 -103 -2 -78 -4 -90 -19 -91
-16 -2 -18 10 -21 99 -2 55 -1 102 1 104 8 7 18 4 29 -9z m-8670 -63 c5 -85
-4 -119 -33 -132 -31 -14 -43 2 -21 27 11 13 16 37 16 88 0 38 3 73 7 77 17
17 28 -5 31 -60z m580 -32 c2 -73 6 -92 17 -92 9 0 15 10 15 24 0 28 33 56 67
56 15 0 23 6 23 16 0 14 -7 15 -40 10 -31 -5 -40 -3 -40 8 0 29 72 36 102 9
13 -12 18 -30 18 -70 0 -52 11 -67 28 -38 7 14 12 14 45 0 34 -14 38 -14 43 0
8 21 0 28 -44 40 -29 8 -38 16 -40 36 -4 38 16 50 69 41 24 -4 42 -12 39 -17
-3 -6 -12 -9 -20 -7 -68 14 -78 -16 -13 -36 44 -14 55 -28 46 -61 -5 -20 -12
-21 -164 -23 -88 -1 -167 -2 -176 -2 -14 -1 -17 9 -15 69 0 39 1 85 2 103 0
26 4 33 18 30 14 -3 17 -17 20 -96z m1986 76 c3 -13 6 -49 6 -81 0 -50 3 -59
22 -66 23 -8 55 -4 63 9 2 4 5 37 7 74 2 70 11 98 26 81 4 -6 6 -52 4 -102
l-4 -93 -73 0 -72 0 -7 38 c-8 49 -8 147 1 155 12 12 21 7 27 -15z m2700 6 c3
-9 6 -38 6 -65 0 -70 13 -90 53 -85 32 3 32 4 35 62 3 74 10 106 22 99 17 -10
23 -115 10 -156 l-13 -39 -67 0 -67 0 -7 46 c-8 61 -8 139 1 147 11 11 20 8
27 -9z m711 -82 c0 -89 -2 -97 -20 -100 -19 -3 -20 2 -18 90 1 51 2 96 2 101
1 4 9 7 19 7 15 0 17 -11 17 -98z m1993 27 c3 -93 8 -109 35 -109 44 0 56 20
59 100 3 58 7 75 18 75 12 0 15 -18 15 -97 l0 -98 -77 0 -78 0 0 101 c0 76 3
100 13 97 7 -3 13 -28 15 -69z m-8104 39 c3 -13 7 -56 11 -96 5 -72 5 -73 -17
-70 -21 3 -23 9 -26 63 -4 69 5 125 18 125 5 0 12 -10 14 -22z m3156 -33 c16
-19 -5 -29 -31 -15 -24 13 -53 6 -47 -12 2 -6 19 -17 38 -23 59 -20 66 -63 16
-86 -19 -9 -32 -9 -56 1 -16 7 -30 16 -30 21 0 12 37 11 45 -1 9 -14 36 0 33
17 -2 9 -19 21 -38 27 -29 9 -36 16 -38 42 -3 27 1 33 25 41 32 11 68 6 83
-12z m5397 2 c21 -16 5 -26 -31 -20 -53 8 -54 -14 -2 -37 31 -13 46 -25 46
-38 0 -42 -76 -67 -115 -38 -16 11 -17 17 -8 27 9 9 18 8 38 -5 14 -9 30 -14
36 -10 20 12 4 37 -31 48 -27 8 -36 17 -38 38 -5 45 64 68 105 35z m-8342 3
c5 -8 11 -7 20 0 8 6 26 10 42 8 28 -3 28 -4 31 -81 3 -70 1 -78 -15 -75 -14
2 -17 12 -15 53 3 60 -7 78 -39 73 -21 -3 -24 -8 -21 -38 4 -43 -14 -93 -30
-88 -7 3 -12 16 -11 31 1 15 1 50 2 77 1 36 5 50 15 50 8 0 18 -5 21 -10z
m242 -7 c3 -7 -10 -13 -34 -15 -47 -4 -49 -19 -5 -34 47 -15 58 -29 45 -57
-15 -32 -52 -41 -94 -23 -27 11 -30 16 -17 21 9 4 26 1 37 -5 12 -6 26 -8 32
-5 21 14 3 39 -36 50 -36 10 -40 14 -37 40 2 17 9 33 15 37 18 12 90 5 94 -9z
m80 5 c4 -7 8 -33 8 -58 0 -43 1 -45 30 -45 28 0 30 3 30 35 0 27 -5 37 -23
45 -30 13 -22 31 13 28 40 -3 49 -16 49 -72 0 -65 -14 -80 -64 -74 -40 6 -45
1 -41 -33 2 -16 -27 -26 -35 -13 -7 13 -6 178 2 190 7 13 22 11 31 -3z m791
-14 c2 -10 11 -25 20 -32 16 -12 15 -14 -3 -28 -11 -8 -19 -24 -17 -34 2 -15
-3 -20 -18 -20 -17 0 -19 4 -14 25 4 17 2 25 -7 26 -8 1 -22 2 -31 3 -29 2
-24 21 8 26 20 4 29 11 30 25 2 33 4 37 17 33 6 -3 14 -13 15 -24z m1670 13
c29 -37 23 -137 -7 -137 -15 0 -17 8 -13 55 4 52 3 55 -23 65 -37 14 -45 2
-45 -68 0 -38 -4 -52 -12 -50 -13 5 -24 108 -15 133 7 15 103 17 115 2z m333
-8 c14 -14 19 -28 15 -42 -3 -12 -6 -37 -6 -54 0 -32 -1 -33 -43 -33 -46 0
-69 -14 -60 -36 3 -9 -2 -14 -14 -14 -24 0 -35 9 -26 23 10 16 11 58 2 89 -4
15 -3 30 2 33 5 4 9 15 9 25 0 13 9 20 28 23 57 9 73 6 93 -14z m226 6 c17
-12 22 -27 25 -75 l3 -60 -68 0 -68 0 3 37 c2 29 8 39 23 41 51 7 65 14 65 28
0 14 -7 15 -40 10 -41 -6 -50 0 -28 22 17 17 59 15 85 -3z m158 5 c39 -15 21
-31 -26 -24 -54 9 -54 -18 0 -34 34 -11 39 -16 43 -47 l4 -35 -70 0 c-56 0
-67 2 -57 13 7 6 29 12 49 12 47 0 53 28 7 33 -38 5 -55 19 -55 46 0 43 45 59
105 36z m316 -2 c1 -7 1 -21 0 -30 -1 -11 7 -18 24 -20 33 -4 33 -22 1 -26
-16 -2 -26 -10 -28 -24 -5 -32 -28 -35 -28 -4 0 22 -5 26 -27 26 -16 0 -35 4
-43 10 -13 8 -13 10 0 14 8 3 26 6 40 8 15 2 24 9 22 17 -5 22 6 41 23 41 8 0
16 -6 16 -12z m1673 -10 c3 -13 7 -47 8 -76 3 -46 1 -52 -17 -52 -18 0 -20 7
-20 57 0 47 -3 58 -18 61 -34 7 -50 -18 -45 -70 l5 -48 -41 1 c-35 0 -38 2
-18 9 19 8 22 17 22 68 0 32 2 61 4 63 3 2 30 5 60 7 51 2 56 0 60 -20z m125
16 c48 -10 40 -33 -9 -27 -31 4 -40 2 -40 -9 0 -9 12 -18 28 -21 46 -10 64
-29 57 -60 -7 -26 -10 -27 -66 -27 -34 0 -59 4 -59 10 0 16 29 24 43 12 16
-14 57 -4 57 13 0 7 -20 18 -45 24 -42 11 -45 13 -45 45 0 44 17 52 79 40z
m203 -12 c15 -15 15 -99 0 -114 -6 -6 -28 -14 -49 -17 -29 -5 -39 -11 -41 -29
-2 -15 -10 -22 -25 -22 -21 0 -22 3 -19 87 2 49 5 94 7 100 5 16 110 12 127
-5z m235 -4 c6 -5 12 -36 12 -69 l0 -60 -61 3 c-52 3 -62 6 -69 25 -11 30 13
53 57 53 28 0 34 4 34 21 0 20 -4 21 -47 15 l-48 -7 24 21 c25 21 70 20 98 -2z
m162 -3 c15 -16 12 -16 -38 -10 -67 9 -67 -9 -1 -35 40 -16 45 -21 45 -49 l0
-31 -62 0 c-48 0 -63 3 -63 14 0 22 17 28 38 15 21 -13 52 -6 52 11 0 11 -7
14 -53 24 -36 8 -51 44 -28 69 19 23 85 18 110 -8z m293 13 c0 -7 1 -20 2 -28
1 -9 13 -16 31 -18 33 -4 59 -21 35 -23 -8 -1 -19 -2 -25 -4 -5 -1 -18 -3 -27
-3 -11 -2 -16 -10 -15 -26 3 -35 -17 -36 -23 -1 -4 23 -10 29 -30 30 -38 0
-40 20 -2 23 24 2 32 7 28 18 -6 17 3 44 15 44 5 0 10 -6 11 -12z m1680 -6 c6
-6 12 -37 12 -69 1 -51 -2 -58 -19 -61 -18 -3 -20 2 -17 53 4 50 2 56 -20 64
-38 14 -51 -5 -45 -66 l6 -53 -32 0 c-24 0 -28 3 -19 12 7 7 12 37 12 68 0 31
3 59 6 62 9 10 105 1 116 -10z m334 -3 c13 -11 15 -87 3 -110 -11 -21 -57 -33
-73 -20 -18 15 -39 -3 -32 -27 4 -13 1 -22 -8 -25 -22 -9 -23 -2 -24 100 l0
92 31 4 c39 5 88 -2 103 -14z m226 4 c13 -12 18 -31 18 -73 l0 -57 -30 2 c-36
2 -49 12 -26 21 25 10 19 34 -8 34 -29 0 -43 -17 -27 -33 16 -16 14 -25 -6
-23 -22 1 -33 15 -33 42 0 22 35 44 70 44 11 0 20 6 20 14 0 18 -30 30 -44 16
-15 -15 -36 -12 -36 4 0 29 73 35 102 9z"/>
<path d="M5267 13536 c-8 -9 -12 -26 -9 -45 4 -28 8 -31 38 -31 31 0 34 3 34
29 0 16 -3 36 -6 45 -8 20 -38 21 -57 2z"/>
<path d="M5518 13489 c-23 -13 -23 -39 0 -39 26 0 56 25 48 38 -9 15 -25 15
-48 1z"/>
<path d="M11498 10890 c-4 -14 -10 -35 -13 -47 -5 -17 -3 -23 8 -23 8 0 18 -7
21 -16 5 -12 0 -15 -20 -12 -29 3 -29 1 -130 -282 -26 -74 -78 -220 -116 -325
-38 -104 -66 -195 -63 -203 2 -7 1 -11 -3 -8 -5 3 -25 -48 -47 -112 -21 -64
-42 -122 -47 -129 -5 -7 -7 -17 -3 -23 3 -5 1 -10 -4 -10 -6 0 -11 -6 -11 -14
0 -7 -9 -34 -21 -60 -11 -25 -17 -51 -14 -56 3 -6 2 -10 -3 -10 -6 0 -13 -11
-16 -24 -3 -13 -9 -31 -12 -40 -6 -14 17 -16 215 -16 l221 0 0 39 c0 85 25 96
35 16 l7 -55 47 0 48 0 -5 55 c-4 44 -2 55 11 55 18 0 27 -21 27 -66 0 -35 22
-48 34 -19 4 11 22 15 71 15 58 0 65 -2 65 -20 0 -13 7 -20 20 -20 15 0 20 7
20 26 0 14 -4 22 -10 19 -5 -3 -7 0 -5 8 3 7 -13 96 -35 198 -23 101 -57 254
-75 339 -19 85 -53 236 -75 335 -23 99 -54 241 -70 315 -16 74 -33 149 -38
165 l-9 30 -5 -25z"/>
<path d="M6827 10883 c-4 -6 -4 -18 -1 -27 3 -9 2 -16 -4 -16 -5 0 -12 -8 -15
-17 -3 -10 -24 -70 -47 -133 -23 -63 -61 -171 -85 -240 -63 -180 -94 -263
-105 -282 -6 -10 -10 -23 -10 -29 0 -6 -32 -99 -71 -207 -40 -108 -77 -215
-84 -237 -6 -22 -15 -49 -20 -60 -29 -71 -35 -89 -35 -102 0 -8 4 -11 10 -8 5
3 12 -7 16 -22 4 -15 9 -31 11 -35 4 -8 33 1 31 10 -4 37 3 42 56 42 30 0 57
-4 61 -9 9 -15 -11 -22 -37 -12 -27 10 -51 1 -40 -15 10 -15 65 -24 93 -16 15
4 24 15 24 27 0 17 8 21 44 23 57 4 91 -5 91 -23 0 -18 30 -20 31 -2 1 6 2 29
3 50 5 76 45 63 46 -14 1 -71 -2 -69 62 -69 52 0 58 2 58 21 0 19 -4 20 -57
14 -54 -7 -57 -6 -38 9 31 24 100 21 125 -6 11 -12 20 -25 20 -30 0 -21 19 -5
22 20 3 26 6 27 61 30 46 2 57 0 57 -13 0 -17 -31 -20 -47 -4 -13 13 -33 4
-33 -16 0 -9 17 -16 45 -21 66 -9 74 -4 68 51 -8 79 -49 246 -58 238 -4 -5 -5
0 -2 10 6 16 -5 80 -44 255 -7 28 -16 52 -22 52 -5 0 -6 7 -3 16 3 9 -1 46
-10 82 -24 103 -64 282 -74 332 -5 25 -19 88 -30 140 -12 52 -29 131 -39 175
-9 44 -20 75 -24 68z"/>
<path d="M6327 9486 c-4 -10 -5 -21 -2 -24 9 -9 17 6 13 25 -3 17 -4 17 -11
-1z"/>
<path d="M6615 9490 c-11 -17 5 -30 36 -30 18 0 29 5 29 14 0 23 -53 36 -65
16z"/>
<path d="M11690 9490 c0 -5 12 -10 26 -10 14 0 23 4 19 10 -3 6 -15 10 -26 10
-10 0 -19 -4 -19 -10z"/>
<path d="M12020 9490 c0 -5 11 -10 25 -10 14 0 25 5 25 10 0 6 -11 10 -25 10
-14 0 -25 -4 -25 -10z"/>
<path d="M9372 9450 c0 -19 2 -27 5 -17 2 9 2 25 0 35 -3 9 -5 1 -5 -18z"/>
<path d="M9876 6785 c-3 -9 3 -24 12 -33 10 -10 22 -26 25 -36 12 -31 22 -9
19 38 -4 40 -7 46 -27 46 -13 0 -25 -7 -29 -15z"/>
<path d="M5262 10837 c-7 -8 -9 -27 -6 -46 6 -26 11 -31 35 -31 22 0 30 6 35
24 10 40 1 61 -27 64 -14 2 -31 -3 -37 -11z"/>
<path d="M5504 10779 c-3 -6 -1 -16 5 -22 12 -12 61 6 61 23 0 13 -57 13 -66
-1z"/>
<path d="M8223 10789 c-25 -9 -32 -39 -9 -39 25 0 46 12 46 25 0 20 -12 24
-37 14z"/>
<path d="M10905 10780 c-9 -14 3 -30 24 -30 18 0 41 18 41 32 0 12 -58 10 -65
-2z"/>
<path d="M13367 10843 c-4 -3 -7 -23 -7 -44 0 -43 25 -59 59 -37 15 9 18 19
14 42 -3 17 -11 34 -17 38 -14 10 -41 10 -49 1z"/>
<path d="M13630 10790 c-14 -3 -25 -12 -25 -20 0 -21 44 -25 51 -6 9 24 1 33
-26 26z"/>
<path d="M9554 9429 c-10 -18 13 -32 40 -25 37 9 34 36 -3 36 -17 0 -33 -5
-37 -11z"/>
<path d="M12250 9425 c-10 -12 -7 -17 15 -27 22 -10 28 -9 36 3 5 8 9 20 9 27
0 17 -45 15 -60 -3z"/>
<path d="M5260 8106 c0 -25 4 -47 8 -50 18 -11 51 7 62 35 16 37 0 59 -41 59
-28 0 -29 -2 -29 -44z"/>
<path d="M5514 8083 c-13 -9 -15 -16 -7 -24 17 -17 48 -6 51 17 3 24 -16 27
-44 7z"/>
<path d="M7967 8143 c-4 -3 -7 -23 -7 -44 0 -40 20 -56 54 -43 22 8 22 79 0
88 -20 8 -39 8 -47 -1z"/>
<path d="M8210 8085 c-15 -18 -13 -21 23 -30 24 -6 27 -5 27 19 0 30 -29 36
-50 11z"/>
<path d="M10683 8140 c-17 -7 -23 -18 -23 -40 0 -23 6 -33 23 -39 26 -10 43 1
49 33 5 24 -7 57 -20 55 -4 0 -17 -4 -29 -9z"/>
<path d="M10910 8080 c-13 -9 -12 -12 4 -25 21 -16 31 -13 46 16 9 16 7 19
-12 19 -13 0 -30 -5 -38 -10z"/>
<path d="M13362 8133 c-5 -10 -6 -29 -2 -43 4 -19 12 -25 35 -25 23 0 31 6 35
25 8 29 -14 60 -41 60 -10 0 -22 -8 -27 -17z"/>
<path d="M13612 8088 c-17 -17 -15 -23 13 -36 21 -10 26 -9 35 9 6 10 8 24 5
29 -8 14 -39 12 -53 -2z"/>
<path d="M6622 6791 c-8 -5 -12 -22 -10 -42 3 -30 6 -34 33 -34 32 0 41 18 31
61 -6 24 -29 31 -54 15z"/>
<path d="M6880 6740 c-31 -7 -33 -34 -3 -38 14 -2 26 4 32 17 13 24 5 30 -29
21z"/>
<path d="M12028 6793 c-13 -3 -18 -14 -18 -37 0 -40 14 -54 46 -48 23 4 25 9
22 46 -3 42 -13 49 -50 39z"/>
<path d="M12278 6743 c-41 -6 -39 -43 2 -43 25 0 30 4 30 25 0 14 -1 24 -2 24
-2 -1 -15 -4 -30 -6z"/>
<path d="M11560 5999 c12 -8 10 -10 -9 -5 -36 8 -102 -41 -128 -94 -12 -24
-72 -185 -73 -195 -1 -8 -12 -37 -47 -122 -18 -45 -33 -87 -33 -92 0 -6 11
-13 25 -17 24 -6 25 -10 25 -75 0 -52 -3 -69 -14 -69 -14 0 -32 82 -22 99 5 7
-14 21 -29 21 -2 0 -11 -24 -20 -52 -10 -29 -32 -91 -50 -138 -18 -47 -45
-116 -59 -155 -15 -38 -32 -82 -38 -97 -6 -16 -15 -28 -20 -28 -10 0 -127 117
-233 235 -73 80 -97 98 -153 110 -31 6 -33 5 -30 -16 2 -16 -3 -25 -14 -27
-12 -2 -15 2 -11 17 8 30 -16 27 -68 -10 -64 -46 -99 -81 -92 -92 4 -6 1 -7
-7 -2 -7 4 -15 4 -19 -1 -3 -5 -31 -29 -61 -54 -30 -25 -74 -64 -97 -87 -23
-24 -46 -43 -51 -43 -5 0 -25 -13 -43 -30 -19 -16 -37 -30 -41 -30 -8 0 -89
238 -89 263 0 9 -4 15 -9 12 -4 -3 -6 5 -2 17 3 13 1 19 -5 15 -7 -5 -9 1 -5
15 4 16 2 19 -8 13 -9 -5 -11 -4 -6 3 4 7 -21 96 -55 199 -35 104 -64 193 -65
198 -16 67 -60 190 -82 225 -44 72 -136 113 -162 73 -11 -17 -11 -17 -6 0 16
51 -109 -24 -140 -85 -27 -51 -17 -110 55 -331 101 -308 111 -339 111 -354 0
-7 5 -13 10 -13 6 0 10 -8 10 -17 0 -34 94 -312 103 -306 6 3 7 1 3 -6 -4 -6
15 -83 43 -170 57 -177 86 -220 157 -240 91 -25 118 -13 284 137 26 23 49 42
52 42 3 0 28 20 54 45 27 25 68 60 91 78 23 17 40 38 38 45 -3 7 -1 11 4 8 10
-7 58 28 84 61 10 13 23 23 28 23 6 0 36 -28 67 -62 212 -231 328 -351 354
-364 37 -19 112 -18 155 3 52 24 84 76 137 220 44 117 111 297 173 463 14 36
29 76 33 90 5 14 20 56 35 95 14 38 23 75 20 83 -2 7 -1 11 3 8 12 -7 95 221
86 235 -4 7 -3 9 4 5 6 -3 15 9 22 31 7 21 16 42 21 48 5 5 9 37 9 70 0 53 -4
68 -29 102 -33 46 -85 76 -115 67 -17 -4 -18 -3 -6 5 12 8 6 11 -25 11 -31 0
-37 -3 -25 -11z m-113 -546 c-2 -24 2 -28 31 -33 18 -3 33 -9 33 -15 0 -5 -15
-12 -33 -15 -27 -4 -33 -9 -31 -28 4 -30 -15 -28 -27 3 -7 18 -17 25 -35 25
-16 0 -25 6 -25 15 0 10 10 15 30 15 27 0 30 3 30 30 0 19 5 30 14 30 10 0 14
-9 13 -27z m-867 -263 c0 -5 -4 -10 -10 -10 -5 0 -10 5 -10 10 0 6 5 10 10 10
6 0 10 -4 10 -10z"/>
<path d="M8565 5980 c-31 -13 -95 -78 -111 -113 -8 -18 -28 -54 -43 -82 -49
-86 -83 -148 -108 -195 -13 -25 -32 -58 -42 -75 l-18 -30 29 -12 c27 -11 28
-15 28 -76 l0 -64 -52 -6 c-30 -4 -57 -2 -62 3 -17 17 -26 11 -42 -22 -8 -18
-31 -59 -49 -92 -19 -32 -35 -62 -35 -66 0 -4 -25 -10 -56 -13 -62 -6 -129
-44 -144 -80 -5 -12 -9 -17 -10 -12 -3 18 -28 -59 -29 -87 -1 -32 27 -108 40
-108 19 0 7 -41 -28 -102 -32 -52 -38 -72 -38 -118 0 -90 40 -147 125 -176 78
-27 180 22 211 100 7 17 18 38 24 46 7 8 30 48 50 88 21 39 44 77 50 82 11 9
753 17 759 8 2 -2 27 -45 57 -96 30 -52 59 -101 64 -110 43 -69 53 -81 58 -75
4 3 7 1 7 -5 0 -19 40 -34 99 -39 48 -4 62 -1 97 23 50 33 70 64 79 126 8 53
0 102 -15 93 -5 -3 -7 1 -4 9 3 8 -10 39 -30 69 -40 61 -43 78 -20 133 40 96
-36 219 -141 228 -34 3 -65 21 -65 37 0 4 -38 73 -85 153 -47 80 -92 161 -101
180 -10 19 -22 32 -27 29 -6 -4 -7 -1 -2 7 5 8 1 18 -10 27 -11 7 -15 13 -11
13 10 0 -43 92 -58 102 -6 4 -7 8 -2 8 5 0 4 6 -2 13 -5 6 -33 55 -62 107 -59
108 -91 146 -139 166 -37 15 -105 18 -136 4z m-198 -322 c-3 -8 -6 -5 -6 6 -1
11 2 17 5 13 3 -3 4 -12 1 -19z m156 -158 c3 -11 3 -56 0 -100 -4 -58 -10 -80
-19 -80 -11 0 -14 21 -14 93 0 52 3 97 7 100 11 12 21 8 26 -13z m59 -22 c13
-7 34 -23 48 -35 31 -30 85 -31 93 -3 3 11 11 20 17 20 7 0 10 -8 7 -20 -4
-17 0 -20 24 -20 20 0 29 -5 29 -16 0 -12 -7 -15 -25 -12 -25 5 -29 0 -26 -33
1 -9 -5 -19 -14 -22 -11 -5 -15 1 -15 23 0 25 -4 30 -25 30 l-24 0 21 -37 c12
-21 28 -46 36 -55 8 -10 12 -18 9 -18 -4 0 9 -27 28 -59 19 -33 35 -64 35 -70
0 -12 -329 -20 -336 -9 -4 6 7 27 53 103 36 60 61 114 67 148 6 34 5 39 -13
44 -14 3 -21 14 -21 29 0 28 0 28 32 12z m-139 -17 c17 -17 -1 -25 -28 -13
-14 6 -31 9 -39 6 -24 -9 4 -44 34 -44 27 0 46 -23 45 -55 0 -38 -97 -46 -112
-9 -8 22 5 30 27 16 26 -16 50 -15 50 2 0 15 -21 26 -50 26 -28 0 -42 33 -30
66 10 24 14 26 51 21 23 -3 46 -10 52 -16z"/>
<path d="M6588 5906 c-41 -18 -86 -68 -101 -112 -11 -32 -13 -155 -9 -637 l5
-598 29 -37 c16 -20 46 -47 66 -60 l37 -22 455 3 c432 2 457 3 491 22 20 11
47 36 59 55 24 36 37 107 26 137 -4 10 -7 19 -6 21 0 1 -6 16 -15 32 -16 31
-83 83 -97 74 -4 -3 -8 0 -8 5 0 8 -107 11 -340 11 l-340 0 -1 118 c-1 64 -4
291 -8 504 l-6 386 -31 39 c-17 21 -44 42 -60 47 -16 4 -37 12 -46 17 -24 12
-67 10 -100 -5z"/>
<path d="M5110 5450 c-12 -7 -12 -12 -3 -21 15 -15 26 -7 21 15 -2 11 -7 13
-18 6z"/>
<path d="M8212 5430 c-11 -18 -10 -20 8 -20 11 0 20 -4 20 -10 0 -5 -9 -10
-20 -10 -14 0 -20 -7 -20 -21 0 -16 5 -20 28 -17 29 3 39 29 28 74 -8 29 -27
31 -44 4z"/>
<path d="M12188 5367 c-51 -23 -107 -94 -93 -117 3 -6 2 -10 -2 -10 -15 0 -14
-65 2 -104 22 -52 63 -90 111 -104 48 -14 291 -16 348 -3 110 26 178 155 129
244 -24 42 -75 88 -91 82 -7 -3 -11 -1 -8 4 11 17 -27 21 -197 20 -109 0 -182
-5 -199 -12z"/>
<path d="M5600 5345 c0 -8 -7 -15 -16 -15 -9 0 -12 5 -8 12 4 6 3 9 -2 6 -5
-2 -26 -12 -46 -22 -84 -38 -115 -161 -61 -244 48 -73 82 -83 284 -82 186 2
199 5 255 56 45 42 57 75 52 133 -6 62 -49 128 -95 148 -38 15 -46 16 -38 4 3
-5 1 -13 -5 -16 -13 -8 -42 14 -34 26 3 5 -8 9 -24 9 -17 0 -32 -6 -35 -15 -5
-11 -18 -13 -57 -8 -34 4 -50 2 -50 -6 0 -6 -8 -11 -17 -11 -24 0 -83 23 -83
32 0 4 -4 8 -10 8 -5 0 -10 -7 -10 -15z"/>
<path d="M8780 4098 c1 -75 17 -103 52 -93 33 11 38 22 38 93 l0 62 -45 0 -45
0 0 -62z"/>
<path d="M13373 5443 c-22 -8 -16 -71 8 -83 40 -22 72 35 44 80 -6 10 -31 12
-52 3z"/>
<path d="M13618 5388 c-35 -12 -36 -26 -4 -34 29 -7 46 1 46 21 0 20 -11 24
-42 13z"/>
<path d="M6850 4026 c0 -30 55 -35 63 -6 4 17 0 20 -29 20 -22 0 -34 -5 -34
-14z"/>
<path d="M9328 4093 c-22 -6 -25 -65 -3 -83 37 -31 81 35 48 73 -9 9 -19 16
-22 16 -3 -1 -14 -3 -23 -6z"/>
<path d="M9550 4020 c0 -23 38 -28 58 -8 20 20 14 28 -23 28 -28 0 -35 -4 -35
-20z"/>
<path d="M12018 4086 c-21 -20 -12 -73 14 -79 35 -10 48 3 48 44 0 21 -4 39
-9 39 -5 0 -16 3 -24 6 -8 3 -21 -1 -29 -10z"/>
<path d="M12273 4042 c-30 -5 -32 -42 -2 -42 18 0 49 21 49 33 0 8 -24 13 -47
9z"/>
<path d="M5503 2675 c-3 -9 -3 -18 0 -22 11 -10 57 7 57 22 0 20 -49 20 -57 0z"/>
<path d="M7960 2730 c-22 -41 37 -107 61 -68 15 23 10 75 -7 82 -28 11 -43 7
-54 -14z"/>
<path d="M8200 2669 c0 -16 5 -20 27 -17 17 2 29 10 31 21 3 13 -3 17 -27 17
-25 0 -31 -4 -31 -21z"/>
<path d="M10664 2736 c-3 -8 -4 -27 -2 -43 3 -24 7 -28 33 -28 27 0 30 3 33
38 2 20 0 37 -5 38 -4 0 -18 2 -31 5 -13 2 -25 -2 -28 -10z"/>
<path d="M10901 2677 c-14 -17 -4 -27 25 -27 13 0 28 9 34 20 10 18 8 20 -18
20 -16 0 -35 -6 -41 -13z"/>
<path d="M13372 2738 c-20 -20 -15 -66 9 -79 32 -17 61 15 51 56 -9 33 -39 44
-60 23z"/>
<path d="M2047 16030 c-20 -81 -127 -858 -131 -946 -2 -50 -6 -97 -10 -103 -4
-6 -36 -11 -76 -11 l-70 0 12 -25 c10 -22 16 -24 43 -19 40 7 51 -6 58 -71 5
-54 -5 -85 -28 -85 -12 0 -14 12 -10 55 3 50 1 57 -21 72 -30 19 -36 14 -39
-34 -3 -48 -14 -83 -26 -83 -10 0 -14 56 -10 134 l3 49 -53 -7 c-30 -4 -72
-10 -94 -12 -22 -2 -51 -6 -65 -10 -22 -5 -23 -7 -9 -17 19 -15 31 -67 23
-106 -5 -26 -11 -30 -48 -33 -48 -5 -76 9 -76 37 0 33 14 45 54 47 20 1 39 6
43 11 10 16 -21 27 -62 20 -36 -6 -39 -5 -26 10 12 15 11 17 -5 17 -26 0 -53
-20 -37 -27 10 -3 10 -10 2 -25 -6 -11 -8 -35 -4 -54 5 -29 3 -34 -14 -34 -17
0 -20 8 -23 47 -4 62 -24 67 -30 8 -3 -25 -8 -49 -11 -52 -4 -3 -24 -6 -46 -7
-22 0 -37 -3 -33 -7 11 -9 367 -62 537 -79 166 -16 150 -5 151 -109 2 -95 11
-172 49 -416 13 -82 31 -202 40 -265 9 -63 20 -137 25 -165 5 -27 12 -72 16
-100 7 -46 9 -38 30 110 12 88 34 230 48 315 15 85 38 259 53 385 l27 231 206
22 c113 13 255 32 315 42 59 11 121 20 137 20 16 0 27 3 25 8 -3 4 14 7 36 8
23 0 78 6 122 13 44 7 118 18 165 25 l85 12 -80 12 c-44 7 -123 19 -175 27
-52 8 -153 23 -225 34 -71 11 -146 23 -165 25 -19 3 -84 12 -145 21 -60 9
-153 19 -205 23 l-95 7 -8 75 c-11 111 -45 363 -62 460 -9 47 -17 99 -19 115
-8 72 -19 148 -36 260 -11 66 -21 131 -23 145 l-3 25 -7 -25z m-51 -1111 c1
-5 2 -18 3 -29 1 -14 8 -20 24 -20 12 0 29 -4 37 -10 13 -8 13 -10 0 -14 -8
-3 -26 -6 -40 -8 -14 -2 -25 -8 -25 -15 0 -21 -13 -25 -20 -4 -4 13 -16 21
-38 23 -39 4 -33 24 6 21 20 -1 27 3 26 15 -1 10 0 20 1 25 3 9 7 24 9 34 1 8
16 -6 17 -18z m-312 -5 c24 -23 20 -26 -29 -18 -25 3 -45 3 -45 -1 0 -14 34
-34 58 -35 14 0 27 -9 34 -25 10 -22 9 -29 -9 -46 -17 -17 -28 -20 -67 -14
-30 5 -46 12 -46 21 0 20 29 29 43 15 16 -16 47 -14 47 4 0 8 -12 18 -27 21
-16 4 -36 13 -45 21 -19 17 -20 53 -1 53 7 0 13 5 13 10 0 16 57 12 74 -6z"/>
<path d="M1217 14883 c-4 -3 -7 -23 -7 -44 0 -35 2 -37 34 -41 l34 -4 4 48 c3
48 3 48 -28 48 -17 0 -34 -3 -37 -7z"/>
<path d="M1100 14871 l-25 -7 27 -7 c18 -5 30 -16 34 -32 10 -41 34 -31 34 15
0 35 -3 40 -22 39 -13 -1 -34 -4 -48 -8z"/>
<path d="M945 14846 c-64 -12 -83 -30 -34 -34 37 -3 57 7 38 19 -10 6 -8 9 9
9 15 0 22 -6 22 -20 0 -20 24 -28 34 -11 7 11 46 3 46 -9 0 -13 38 1 44 15 3
8 -10 17 -37 25 -23 6 -46 13 -52 14 -5 2 -37 -2 -70 -8z"/>
<path d="M1457 14833 c-17 -17 -6 -34 20 -31 36 4 45 38 10 38 -13 0 -27 -3
-30 -7z"/>
<path d="M1128 14783 c6 -2 18 -2 25 0 6 3 1 5 -13 5 -14 0 -19 -2 -12 -5z"/>
<path d="M3922 13871 c-215 -53 -399 -208 -482 -406 -64 -156 -61 6 -50 -2549
5 -1276 12 -3128 16 -4113 l7 -1793 -1706 0 -1707 0 0 -2505 0 -2505 9000 0
9000 0 0 2505 0 2505 -1697 0 -1698 0 0 132 c-1 1130 -6 1528 -20 1528 -20 0
-65 22 -65 32 0 4 18 8 40 8 29 0 40 4 40 15 0 8 -9 15 -21 15 -33 0 -59 19
-59 43 0 31 18 47 53 47 l30 0 -6 703 c-4 386 -7 960 -7 1275 0 345 -4 571 -9
568 -16 -10 -61 13 -61 30 0 11 5 14 18 9 46 -19 52 -18 52 9 0 15 -4 25 -9
22 -15 -10 -61 12 -61 29 0 23 25 45 51 45 l22 0 -6 722 c-4 397 -7 970 -7
1274 l0 554 -25 6 c-13 3 -29 12 -35 19 -18 21 7 29 35 11 24 -16 25 -16 25 9
0 18 -5 25 -18 25 -24 0 -56 35 -49 53 3 8 19 21 36 28 31 14 31 15 31 91 0
162 -32 295 -98 410 -58 100 -235 270 -264 252 -6 -4 -8 -3 -5 3 6 9 -12 23
-30 23 -7 0 6 -876 14 -895 4 -12 9 -13 19 -4 10 8 14 8 14 0 0 -6 9 -2 20 9
15 15 20 36 22 92 2 57 6 73 18 73 12 0 16 -16 18 -75 2 -89 -13 -117 -68
-122 -19 -2 -38 -7 -42 -13 -9 -11 -8 -918 1 -1960 l6 -700 25 3 c38 5 44 16
42 77 -1 30 3 68 9 83 10 25 12 26 19 7 5 -11 9 -46 9 -78 1 -69 -20 -116 -52
-119 -12 0 -29 -1 -37 -2 -13 -1 -15 -156 -14 -1335 1 -1064 4 -1335 14 -1341
7 -4 20 -1 31 8 15 13 19 30 19 89 0 70 13 100 31 72 5 -8 9 -43 9 -79 0 -73
-20 -111 -61 -115 -13 -1 -27 -3 -31 -4 -10 -1 -10 -1510 -2 -2168 6 -403 10
-503 20 -503 22 0 34 35 34 97 0 58 12 94 27 80 4 -5 9 -39 11 -76 4 -60 1
-73 -19 -100 -14 -19 -32 -31 -46 -31 l-22 0 -1 -760 c0 -496 -4 -779 -11
-813 -33 -163 -128 -319 -251 -412 -31 -23 -56 -44 -55 -46 1 -2 0 -3 -2 -2
-1 1 -29 -12 -62 -28 -63 -32 -128 -54 -205 -68 -52 -10 -1089 -16 -5124 -31
-3622 -14 -3882 -14 -3953 5 -58 15 -212 81 -234 100 -6 5 -25 21 -43 34 -48
37 -98 90 -131 138 l-30 43 91 0 92 0 -6 927 c-7 1000 -12 2279 -22 5475 l-7
2037 -46 6 c-238 31 -428 159 -526 355 -79 157 -79 154 -83 487 -4 323 1 369
48 423 11 13 17 27 13 33 -3 5 -1 7 4 4 6 -4 19 3 29 14 32 35 134 79 185 79
l46 0 9 43 c12 49 8 67 -12 67 -8 0 -14 5 -14 10 0 6 11 10 24 10 30 0 39 13
38 53 -1 33 -15 47 -49 47 -22 0 -23 -4 -23 -72 0 -78 -11 -111 -30 -92 -7 7
-10 45 -8 100 l3 89 59 -1 c62 -2 80 -14 70 -47 -5 -16 -3 -16 19 3 16 14 24
30 22 46 -1 13 3 24 9 24 6 0 4 5 -4 10 -18 11 -6 25 30 35 14 3 20 3 14 -2
-5 -4 -10 -18 -10 -30 0 -24 10 -30 21 -13 3 5 25 15 48 21 39 11 40 13 17 20
l-25 7 24 1 24 1 -7 243 c-4 133 -13 438 -21 677 -8 239 -16 488 -17 553 l-1
117 -76 -1 c-42 0 -109 -9 -149 -18z m-250 -1660 c3 -3 8 -33 9 -66 2 -47 0
-60 -12 -60 -10 0 -15 15 -17 57 -2 43 -6 56 -16 52 -16 -6 -30 11 -21 26 6
10 43 5 57 -9z m143 7 c39 -18 29 -28 -21 -21 -37 5 -46 3 -42 -7 4 -13 8 -16
61 -41 28 -13 40 -59 15 -59 -9 0 -8 -4 2 -11 11 -8 0 -9 -40 -4 -62 7 -81 19
-61 38 10 10 15 8 26 -7 9 -11 20 -16 30 -12 26 10 13 37 -24 50 -24 8 -35 18
-38 35 -7 46 36 65 92 39z m10648 0 c13 -7 17 -22 17 -74 0 -82 -22 -85 -30
-3 -4 48 -8 54 -29 57 -31 5 -41 -12 -41 -70 0 -50 -13 -64 -24 -25 -3 12 -6
45 -6 74 l0 51 48 0 c26 0 55 -5 65 -10z m-10381 -2630 c3 -7 5 -55 4 -107 -1
-90 -3 -96 -32 -104 -9 -3 -9 197 0 211 9 16 23 15 28 0z m-414 -67 c20 -12
20 -146 1 -146 -10 0 -15 17 -17 58 -2 39 -8 60 -18 64 -7 3 -14 11 -14 19 0
15 28 18 48 5z m147 -3 c39 -18 30 -28 -20 -21 -26 3 -45 2 -45 -4 0 -15 23
-33 42 -33 11 0 28 -8 39 -19 l20 -19 -24 -28 c-23 -26 -28 -27 -63 -19 -24 6
-39 16 -39 25 0 8 7 13 15 11 56 -14 62 -14 58 5 -2 12 -16 21 -40 27 -45 11
-58 49 -24 72 25 18 47 19 81 3z m176 3 c13 -3 30 -59 26 -86 -4 -33 -48 -71
-71 -62 -22 9 -20 21 7 32 31 14 37 80 8 90 -28 9 -63 -12 -57 -33 16 -52 16
-68 2 -87 -14 -17 -17 -18 -26 -5 -10 15 -14 142 -5 152 5 4 97 4 116 -1z
m241 -10 c22 -8 23 -13 20 -81 -2 -41 -7 -68 -11 -61 -5 7 -26 11 -53 10 -55
-3 -68 5 -68 41 0 27 4 31 45 41 54 14 55 35 1 31 -27 -2 -36 1 -36 13 0 17
62 21 102 6z m10161 -6 c4 -8 2 -17 -3 -20 -5 -3 -8 -28 -6 -55 2 -28 0 -52
-4 -55 -16 -10 -35 22 -34 56 2 84 4 89 23 89 10 0 21 -7 24 -15z m85 -57 c2
-56 0 -68 -13 -68 -11 0 -15 11 -15 49 0 42 -4 52 -27 70 l-28 21 40 -2 40 -3
3 -67z m-10392 -2642 c4 -85 -4 -126 -25 -126 -14 0 -16 13 -13 92 4 106 8
126 23 111 6 -6 13 -41 15 -77z m-422 11 c14 -10 16 -25 14 -77 -4 -79 -22
-86 -26 -10 -2 35 -8 59 -18 67 -9 6 -13 16 -9 22 8 14 17 14 39 -2z m145 2
c47 -16 38 -31 -14 -23 -37 5 -45 3 -45 -9 0 -9 17 -21 43 -29 33 -10 43 -18
45 -39 2 -19 -3 -28 -23 -37 -33 -15 -47 -15 -77 1 -35 18 -26 38 11 24 31
-11 66 -3 56 13 -4 6 -24 18 -46 27 -32 13 -39 20 -39 43 0 22 6 30 23 33 12
2 25 5 28 6 3 0 20 -4 38 -10z m191 -16 c20 -26 21 -44 4 -105 -6 -22 -51 -35
-67 -19 -18 18 -26 13 -29 -21 -2 -21 -8 -33 -18 -33 -12 0 -15 15 -17 65 -1
36 -4 79 -6 97 -3 17 -4 33 -1 35 2 3 28 5 58 6 49 1 58 -2 76 -25z m241 10
c1 -10 3 -35 5 -55 3 -33 0 -38 -17 -38 -12 0 -17 4 -14 11 5 7 -5 9 -26 7
-22 -2 -34 -8 -34 -18 0 -12 10 -14 43 -12 34 3 42 0 42 -13 0 -24 -108 -17
-124 8 -9 15 -7 22 13 38 13 10 36 19 52 19 22 0 29 5 29 20 0 22 -28 27 -60
10 -24 -13 -37 5 -20 25 8 10 31 15 61 15 39 0 49 -3 50 -17z m10226 5 c24
-31 23 -138 -2 -138 -7 0 -12 17 -13 45 0 53 -16 77 -46 73 -18 -3 -21 -10
-21 -53 0 -27 -4 -56 -8 -63 -17 -26 -27 1 -27 72 l0 73 53 2 c34 1 57 -3 64
-11z m-10382 -2739 c0 -85 -3 -104 -15 -104 -12 0 -16 20 -20 93 -5 94 1 127
23 119 8 -2 12 -37 12 -108z m12795 77 c0 -16 -18 -31 -27 -22 -8 8 5 36 17
36 5 0 10 -6 10 -14z m-2496 -24 c3 -5 18 -7 33 -5 32 5 60 -18 63 -52 6 -54
-1 -95 -14 -95 -11 0 -15 12 -14 48 2 56 -6 72 -33 72 -25 0 -35 -29 -38 -102
-1 -10 -8 -18 -16 -18 -12 0 -15 15 -15 73 0 41 3 77 7 80 9 9 21 9 27 -1z
m-10568 -16 c21 -22 18 -25 -27 -19 -33 5 -41 3 -37 -8 2 -8 18 -18 34 -24 44
-15 54 -24 54 -50 0 -34 -66 -53 -107 -31 -31 17 -27 19 32 20 49 1 56 27 9
36 -44 10 -54 18 -54 46 0 38 67 59 96 30z m176 3 c25 -14 33 -70 14 -107 -16
-31 -57 -47 -75 -29 -15 15 -29 0 -24 -27 5 -26 -15 -46 -27 -26 -8 13 -13
178 -6 189 7 10 99 10 118 0z m222 1 c44 -16 32 -33 -19 -28 -25 3 -48 2 -51
-3 -8 -14 -24 -10 -24 6 0 30 48 43 94 25z m10374 4 c35 -10 27 -31 -9 -26
-24 4 -30 1 -27 -9 3 -8 11 -14 19 -14 21 -1 39 -14 39 -29 0 -18 -41 -13 -74
9 -31 21 -32 29 -6 55 22 22 25 23 58 14z m-10910 -81 c2 -60 0 -73 -13 -73
-12 0 -15 12 -15 56 0 30 -5 64 -11 75 -9 18 -8 20 13 17 21 -3 23 -8 26 -75z
m13720 45 c7 -7 12 -23 12 -37 l0 -26 -20 25 c-30 38 -23 69 8 38z m-13150
-155 c-2 -118 -3 -128 -5 -50 l-4 97 -54 0 c-43 0 -56 4 -65 19 -14 26 -3 51
24 51 11 1 35 7 51 15 56 25 55 27 53 -132z m10351 70 c8 8 11 5 11 -11 0 -12
-6 -22 -12 -22 -25 0 -88 21 -88 29 0 17 14 20 45 7 24 -10 36 -11 44 -3z
m2845 1 c4 -9 4 -19 2 -21 -8 -8 -26 8 -26 23 0 19 16 18 24 -2z m-15296
-1183 c27 -23 28 -31 3 -24 -18 5 -20 -1 -24 -53 -3 -54 -3 -53 -5 19 -1 42 0
77 1 77 2 0 14 -8 25 -19z m82 -52 c0 -6 -4 -7 -10 -4 -5 3 -10 11 -10 16 0 6
5 7 10 4 6 -3 10 -11 10 -16z m111 -56 l22 -22 -23 4 c-28 5 -50 23 -50 41 0
8 -10 14 -25 14 -16 0 -25 6 -25 16 0 13 7 12 40 -7 22 -13 50 -33 61 -46z
m14475 -37 c-2 -6 -5 -3 -5 7 -1 10 -5 16 -10 13 -5 -3 -11 1 -14 8 -3 8 -1
17 6 19 13 4 30 -30 23 -47z m-14696 -31 c0 -16 -6 -25 -15 -25 -18 0 -20 21
-3 38 17 17 18 16 18 -13z m317 -23 c-23 -5 -71 29 -56 39 7 4 25 -2 42 -14
21 -16 25 -23 14 -25z m14393 28 c0 -5 -5 -10 -11 -10 -5 0 -7 5 -4 10 3 6 8
10 11 10 2 0 4 -4 4 -10z m-14960 -494 c0 -3 -4 -8 -10 -11 -5 -3 -10 -1 -10
4 0 6 5 11 10 11 6 0 10 -2 10 -4z m827 -433 c-3 -10 -5 -4 -5 12 0 17 2 24 5
18 2 -7 2 -21 0 -30z m4085 -253 c4 -24 1 -30 -14 -30 -12 0 -18 7 -18 23 0
45 26 51 32 7z m386 -3 c3 -22 -1 -27 -17 -27 -23 0 -24 3 -15 38 8 30 28 23
32 -11z m5010 13 c11 -18 10 -20 -8 -20 -13 0 -20 7 -20 20 0 11 3 20 8 20 4
0 13 -9 20 -20z m-5968 -32 c0 -4 -9 -8 -20 -8 -21 0 -24 8 -13 36 6 16 7 16
20 -2 7 -10 13 -21 13 -26z m3270 22 c9 -17 8 -20 -14 -20 -19 0 -23 4 -19 20
3 11 9 20 14 20 4 0 13 -9 19 -20z m393 6 c7 -16 -1 -26 -20 -26 -7 0 -13 9
-13 20 0 23 25 27 33 6z m2697 -7 c0 -5 -7 -9 -15 -9 -15 0 -20 12 -9 23 8 8
24 -1 24 -14z m-6490 -21 c0 -5 -9 -8 -20 -8 -23 0 -26 10 -8 28 9 9 14 9 20
-1 4 -6 8 -15 8 -19z m2698 14 c2 -7 -6 -12 -17 -12 -21 0 -27 11 -14 24 9 9
26 2 31 -12z m130 0 c2 -7 -6 -12 -17 -12 -21 0 -27 11 -14 24 9 9 26 2 31
-12z m2567 8 c3 -5 -3 -10 -15 -10 -12 0 -18 5 -15 10 3 6 10 10 15 10 5 0 12
-4 15 -10z m135 0 c12 -8 9 -10 -13 -10 -16 0 -26 4 -22 10 8 12 16 12 35 0z
m2448 -1087 c-10 -2 -28 -2 -40 0 -13 2 -5 4 17 4 22 1 32 -1 23 -4z"/>
<path d="M4157 9429 c-22 -13 -13 -29 17 -29 22 0 46 17 46 32 0 11 -42 9 -63
-3z"/>
<path d="M3910 6781 c-12 -24 2 -69 25 -77 22 -9 45 14 45 45 0 48 -49 71 -70
32z"/>
<path d="M3912 4076 c-15 -33 5 -76 35 -76 17 0 24 8 29 35 11 59 -40 92 -64
41z"/>
<path d="M4154 4029 c-8 -13 13 -29 39 -29 10 0 17 8 17 20 0 15 -7 20 -24 20
-14 0 -28 -5 -32 -11z"/>
<path d="M13600 13475 c0 -16 20 -19 58 -9 36 10 25 24 -18 24 -29 0 -40 -4
-40 -15z"/>
<path d="M14556 12194 c-7 -18 0 -34 15 -34 5 0 9 11 9 25 0 28 -15 34 -24 9z"/>
<path d="M16654 10824 c-4 -16 -8 -59 -8 -96 -1 -37 -3 -60 -6 -52 -5 14 -33
-158 -46 -286 -3 -30 -7 -57 -9 -59 -2 -2 -39 -7 -82 -11 -71 -7 -336 -45
-390 -56 -35 -7 -27 -24 10 -24 17 0 82 -9 142 -19 61 -10 158 -24 218 -31
105 -13 107 -13 107 -39 0 -14 9 -84 21 -156 11 -71 22 -146 24 -165 9 -85 29
-204 32 -190 3 18 59 413 68 488 6 47 13 57 37 53 5 0 41 4 80 9 40 6 89 12
108 15 154 21 315 47 319 51 2 2 -9 4 -25 4 -16 0 -81 9 -144 20 -63 11 -171
27 -239 35 -68 8 -126 16 -128 18 -2 2 -12 71 -23 153 -29 218 -50 357 -55
362 -2 2 -7 -9 -11 -24z"/>
<path d="M4779 10763 c-12 -15 -12 -16 4 -10 10 4 23 7 28 7 5 0 9 5 9 10 0
16 -26 12 -41 -7z"/>
<path d="M16106 9438 c-15 -106 -41 -281 -57 -388 -15 -107 -29 -219 -29 -247
l0 -53 -39 0 c-42 0 -231 -25 -496 -65 -93 -15 -208 -32 -255 -39 -96 -15 -97
-14 90 -41 58 -8 150 -22 205 -30 159 -25 289 -43 305 -43 23 -1 182 -21 185
-24 1 -2 5 -39 9 -83 3 -44 8 -89 10 -100 2 -11 7 -53 11 -92 4 -40 10 -73 14
-73 3 0 6 -20 7 -45 1 -53 11 -67 42 -58 20 5 23 11 21 54 -2 36 -7 49 -17 49
-9 0 -13 3 -9 6 3 4 18 3 32 0 25 -6 26 -9 23 -69 l-3 -62 -37 -3 c-21 -2 -38
-6 -38 -10 -1 -14 54 -391 56 -389 3 2 20 126 38 267 2 19 9 62 15 95 6 33 10
69 9 80 -1 11 -1 53 0 94 2 57 5 72 16 68 10 -4 16 19 26 103 7 60 10 121 8
135 -7 33 9 40 118 49 105 8 135 12 329 43 88 14 178 27 200 29 53 6 219 35
223 38 1 2 -41 9 -95 16 -54 6 -150 20 -213 30 -63 10 -122 19 -130 19 -8 1
-71 10 -140 21 -69 11 -160 21 -203 23 -89 2 -82 -7 -92 127 -3 47 -10 110
-15 140 -5 30 -24 150 -40 265 -17 116 -36 243 -43 283 l-12 73 -29 -193z"/>
<path d="M14567 9503 c-22 -6 -17 -27 6 -31 12 -2 17 3 17 17 0 12 -1 20 -2
20 -2 -1 -11 -3 -21 -6z"/>
<path d="M14550 6794 c0 -12 31 -35 40 -29 20 12 10 35 -15 35 -14 0 -25 -3
-25 -6z"/>
</g>
</svg>
